%TF.GenerationSoftware,KiCad,Pcbnew,9.0.0*%
%TF.CreationDate,2025-04-22T12:40:57+02:00*%
%TF.ProjectId,carte-capteur-ir,63617274-652d-4636-9170-746575722d69,rev?*%
%TF.SameCoordinates,Original*%
%TF.FileFunction,Copper,L1,Top*%
%TF.FilePolarity,Positive*%
%FSLAX46Y46*%
G04 Gerber Fmt 4.6, Leading zero omitted, Abs format (unit mm)*
G04 Created by KiCad (PCBNEW 9.0.0) date 2025-04-22 12:40:57*
%MOMM*%
%LPD*%
G01*
G04 APERTURE LIST*
G04 Aperture macros list*
%AMRoundRect*
0 Rectangle with rounded corners*
0 $1 Rounding radius*
0 $2 $3 $4 $5 $6 $7 $8 $9 X,Y pos of 4 corners*
0 Add a 4 corners polygon primitive as box body*
4,1,4,$2,$3,$4,$5,$6,$7,$8,$9,$2,$3,0*
0 Add four circle primitives for the rounded corners*
1,1,$1+$1,$2,$3*
1,1,$1+$1,$4,$5*
1,1,$1+$1,$6,$7*
1,1,$1+$1,$8,$9*
0 Add four rect primitives between the rounded corners*
20,1,$1+$1,$2,$3,$4,$5,0*
20,1,$1+$1,$4,$5,$6,$7,0*
20,1,$1+$1,$6,$7,$8,$9,0*
20,1,$1+$1,$8,$9,$2,$3,0*%
G04 Aperture macros list end*
%TA.AperFunction,SMDPad,CuDef*%
%ADD10RoundRect,0.250000X-0.262500X-0.450000X0.262500X-0.450000X0.262500X0.450000X-0.262500X0.450000X0*%
%TD*%
%TA.AperFunction,SMDPad,CuDef*%
%ADD11RoundRect,0.237500X-0.237500X0.250000X-0.237500X-0.250000X0.237500X-0.250000X0.237500X0.250000X0*%
%TD*%
%TA.AperFunction,SMDPad,CuDef*%
%ADD12RoundRect,0.237500X0.237500X-0.250000X0.237500X0.250000X-0.237500X0.250000X-0.237500X-0.250000X0*%
%TD*%
%TA.AperFunction,SMDPad,CuDef*%
%ADD13RoundRect,0.150000X-0.675000X-0.150000X0.675000X-0.150000X0.675000X0.150000X-0.675000X0.150000X0*%
%TD*%
%TA.AperFunction,SMDPad,CuDef*%
%ADD14RoundRect,0.250000X-0.325000X-0.650000X0.325000X-0.650000X0.325000X0.650000X-0.325000X0.650000X0*%
%TD*%
%TA.AperFunction,SMDPad,CuDef*%
%ADD15RoundRect,0.237500X-0.250000X-0.237500X0.250000X-0.237500X0.250000X0.237500X-0.250000X0.237500X0*%
%TD*%
%TA.AperFunction,SMDPad,CuDef*%
%ADD16RoundRect,0.250000X0.325000X0.650000X-0.325000X0.650000X-0.325000X-0.650000X0.325000X-0.650000X0*%
%TD*%
%TA.AperFunction,ComponentPad*%
%ADD17RoundRect,0.250000X-0.600000X-0.725000X0.600000X-0.725000X0.600000X0.725000X-0.600000X0.725000X0*%
%TD*%
%TA.AperFunction,ComponentPad*%
%ADD18O,1.700000X1.950000*%
%TD*%
%TA.AperFunction,ComponentPad*%
%ADD19C,2.000000*%
%TD*%
%TA.AperFunction,ViaPad*%
%ADD20C,1.000000*%
%TD*%
%TA.AperFunction,Conductor*%
%ADD21C,0.300000*%
%TD*%
G04 APERTURE END LIST*
D10*
%TO.P,R1,2*%
%TO.N,/OUT1*%
X225954426Y-94560575D03*
%TO.P,R1,1*%
%TO.N,+5V*%
X224129426Y-94560575D03*
%TD*%
D11*
%TO.P,R3,2*%
%TO.N,Net-(U1A-+)*%
X208954426Y-95973075D03*
%TO.P,R3,1*%
%TO.N,+5V*%
X208954426Y-94148075D03*
%TD*%
D12*
%TO.P,R4,1*%
%TO.N,+5V*%
X206454426Y-91973075D03*
%TO.P,R4,2*%
%TO.N,Net-(U1B-+)*%
X206454426Y-90148075D03*
%TD*%
D13*
%TO.P,U1,4,V-*%
%TO.N,GND*%
X211204426Y-100600575D03*
%TO.P,U1,1*%
%TO.N,/OUT1*%
X211204426Y-96790575D03*
%TO.P,U1,2,-*%
%TO.N,/V_comp*%
X211204426Y-98060575D03*
%TO.P,U1,3,+*%
%TO.N,Net-(U1A-+)*%
X211204426Y-99330575D03*
%TO.P,U1,5,+*%
%TO.N,Net-(U1B-+)*%
X216454426Y-100600575D03*
%TO.P,U1,6,-*%
%TO.N,/V_comp*%
X216454426Y-99330575D03*
%TO.P,U1,7*%
%TO.N,/OUT2*%
X216454426Y-98060575D03*
%TO.P,U1,8,V+*%
%TO.N,+5V*%
X216454426Y-96790575D03*
%TD*%
D14*
%TO.P,C1,1*%
%TO.N,+5V*%
X223504426Y-88060575D03*
%TO.P,C1,2*%
%TO.N,/OUT2*%
X226454426Y-88060575D03*
%TD*%
D15*
%TO.P,R6,1*%
%TO.N,+5V*%
X206541926Y-83560575D03*
%TO.P,R6,2*%
%TO.N,Net-(U3-A)*%
X208366926Y-83560575D03*
%TD*%
D10*
%TO.P,R2,1*%
%TO.N,+5V*%
X224129426Y-84060575D03*
%TO.P,R2,2*%
%TO.N,/OUT2*%
X225954426Y-84060575D03*
%TD*%
D15*
%TO.P,R8,1*%
%TO.N,/V_comp*%
X204629426Y-94560575D03*
%TO.P,R8,2*%
%TO.N,+5V*%
X206454426Y-94560575D03*
%TD*%
D16*
%TO.P,C2,1*%
%TO.N,/OUT1*%
X226454426Y-91060575D03*
%TO.P,C2,2*%
%TO.N,+5V*%
X223504426Y-91060575D03*
%TD*%
D15*
%TO.P,R5,1*%
%TO.N,+5V*%
X236629426Y-84060575D03*
%TO.P,R5,2*%
%TO.N,Net-(U2-A)*%
X238454426Y-84060575D03*
%TD*%
D17*
%TO.P,J1,1,VCC*%
%TO.N,GND*%
X221454426Y-99060575D03*
D18*
%TO.P,J1,3,TCRT5000_1*%
%TO.N,/OUT1*%
X226454426Y-99060575D03*
%TO.P,J1,2,GND*%
%TO.N,+5V*%
X223954426Y-99060575D03*
%TO.P,J1,4,TCRT5000_2*%
%TO.N,/OUT2*%
X228954426Y-99060575D03*
%TD*%
D19*
%TO.P,R9,1*%
%TO.N,GND*%
X212954426Y-81140575D03*
%TO.P,R9,2*%
%TO.N,/V_comp*%
X212954426Y-78600575D03*
%TO.P,R9,3*%
%TO.N,N/C*%
X212954426Y-76060575D03*
%TD*%
%TO.P,U2,2,E*%
%TO.N,GND*%
X233194427Y-88350575D03*
%TO.P,U2,4,C*%
X238694426Y-88350575D03*
%TO.P,U2,1,C*%
%TO.N,Net-(U1A-+)*%
X233194427Y-90890575D03*
%TO.P,U2,3,A*%
%TO.N,Net-(U2-A)*%
X238694426Y-90890575D03*
%TO.P,U2,5*%
%TO.N,N/C*%
X235944427Y-91520574D03*
%TO.P,U2,6*%
X235944427Y-87720576D03*
%TD*%
%TO.P,U3,2,E*%
%TO.N,GND*%
X215944427Y-90885776D03*
%TO.P,U3,4,C*%
X210444428Y-90885776D03*
%TO.P,U3,1,C*%
%TO.N,Net-(U1B-+)*%
X215944427Y-88345776D03*
%TO.P,U3,3,A*%
%TO.N,Net-(U3-A)*%
X210444428Y-88345776D03*
%TO.P,U3,5*%
%TO.N,N/C*%
X213194427Y-87715777D03*
%TO.P,U3,6*%
X213194427Y-91515775D03*
%TD*%
D20*
%TO.N,/OUT1*%
X212454426Y-95560575D03*
%TO.N,/V_comp*%
X213954426Y-97060575D03*
%TO.N,Net-(U1B-+)*%
X217954426Y-101236575D03*
%TD*%
D21*
%TO.N,Net-(U1A-+)*%
X212224426Y-99330575D02*
X211204426Y-99330575D01*
X215454426Y-102560575D02*
X212224426Y-99330575D01*
X227419318Y-102560575D02*
X215454426Y-102560575D01*
X233194427Y-96785466D02*
X227419318Y-102560575D01*
X233194427Y-90890575D02*
X233194427Y-96785466D01*
%TO.N,/OUT1*%
X212454426Y-95560575D02*
X212434426Y-95560575D01*
X212434426Y-95560575D02*
X211204426Y-96790575D01*
X225954426Y-98560575D02*
X226454426Y-99060575D01*
X225954426Y-94560575D02*
X225954426Y-98560575D01*
X226454426Y-94060575D02*
X225954426Y-94560575D01*
X226454426Y-91060575D02*
X226454426Y-94060575D01*
%TO.N,Net-(U1B-+)*%
X217318426Y-100600575D02*
X217954426Y-101236575D01*
X216454426Y-100600575D02*
X217318426Y-100600575D01*
%TO.N,/OUT2*%
X219705425Y-100486575D02*
X227528426Y-100486575D01*
X217279425Y-98060575D02*
X219705425Y-100486575D01*
X227528426Y-100486575D02*
X228954426Y-99060575D01*
X216454426Y-98060575D02*
X217279425Y-98060575D01*
%TO.N,/V_comp*%
X212954426Y-98060575D02*
X213954426Y-97060575D01*
X211204426Y-98060575D02*
X212954426Y-98060575D01*
X211804368Y-98060575D02*
X211204426Y-98060575D01*
X213074368Y-99330575D02*
X211804368Y-98060575D01*
X216454426Y-99330575D02*
X213074368Y-99330575D01*
X204629426Y-84005309D02*
X204629426Y-94560575D01*
X210034160Y-78600575D02*
X204629426Y-84005309D01*
X212954426Y-78600575D02*
X210034160Y-78600575D01*
%TO.N,Net-(U2-A)*%
X240145426Y-89439575D02*
X238694426Y-90890575D01*
X240145426Y-85751575D02*
X240145426Y-89439575D01*
X238454426Y-84060575D02*
X240145426Y-85751575D01*
%TO.N,+5V*%
X225280426Y-82909575D02*
X224129426Y-84060575D01*
X235478426Y-82909575D02*
X225280426Y-82909575D01*
X236629426Y-84060575D02*
X235478426Y-82909575D01*
%TO.N,/OUT2*%
X228954426Y-90560575D02*
X228954426Y-99060575D01*
X226454426Y-88060575D02*
X228954426Y-90560575D01*
%TO.N,+5V*%
X221684426Y-96790575D02*
X216454426Y-96790575D01*
X223954426Y-99060575D02*
X221684426Y-96790575D01*
X224129426Y-98885575D02*
X223954426Y-99060575D01*
X224129426Y-94560575D02*
X224129426Y-98885575D01*
X224129426Y-92235575D02*
X224129426Y-94560575D01*
X223504426Y-91610575D02*
X224129426Y-92235575D01*
X223504426Y-91060575D02*
X223504426Y-91610575D01*
X223504426Y-88060575D02*
X223504426Y-91060575D01*
X224129426Y-87435575D02*
X223504426Y-88060575D01*
X224129426Y-84060575D02*
X224129426Y-87435575D01*
%TO.N,/OUT2*%
X225954426Y-84560575D02*
X226454426Y-85060575D01*
X226454426Y-85060575D02*
X226454426Y-88060575D01*
X225954426Y-84060575D02*
X225954426Y-84560575D01*
%TO.N,Net-(U1A-+)*%
X210379427Y-99330575D02*
X211204426Y-99330575D01*
X208954426Y-97905574D02*
X210379427Y-99330575D01*
X208954426Y-95973075D02*
X208954426Y-97905574D01*
%TO.N,+5V*%
X213811926Y-94148075D02*
X216454426Y-96790575D01*
X208954426Y-94148075D02*
X213811926Y-94148075D01*
X208541926Y-94560575D02*
X208954426Y-94148075D01*
X206454426Y-94560575D02*
X208541926Y-94560575D01*
X206454426Y-91973075D02*
X206454426Y-94560575D01*
%TO.N,Net-(U1B-+)*%
X218740728Y-91142077D02*
X215944427Y-88345776D01*
X218740728Y-92437036D02*
X218740728Y-91142077D01*
X218210989Y-92966775D02*
X218740728Y-92437036D01*
X209273126Y-92966775D02*
X218210989Y-92966775D01*
X206454426Y-90148075D02*
X209273126Y-92966775D01*
%TO.N,+5V*%
X205454426Y-84648075D02*
X205454426Y-90973075D01*
X205454426Y-90973075D02*
X206454426Y-91973075D01*
X206541926Y-83560575D02*
X205454426Y-84648075D01*
%TO.N,Net-(U3-A)*%
X208366926Y-86268274D02*
X210444428Y-88345776D01*
X208366926Y-83560575D02*
X208366926Y-86268274D01*
%TD*%
%TA.AperFunction,Conductor*%
%TO.N,GND*%
G36*
X216442539Y-73020185D02*
G01*
X216488294Y-73072989D01*
X216499500Y-73124500D01*
X216499500Y-82065891D01*
X216533608Y-82193187D01*
X216566554Y-82250250D01*
X216599500Y-82307314D01*
X216692686Y-82400500D01*
X216806814Y-82466392D01*
X216934108Y-82500500D01*
X224753035Y-82500500D01*
X224820074Y-82520185D01*
X224865829Y-82572989D01*
X224875773Y-82642147D01*
X224846748Y-82705703D01*
X224840716Y-82712181D01*
X224528987Y-83023909D01*
X224467664Y-83057394D01*
X224438734Y-83059637D01*
X224438734Y-83060075D01*
X224435028Y-83060075D01*
X223823824Y-83060075D01*
X223784779Y-83064763D01*
X223735364Y-83070697D01*
X223594582Y-83126214D01*
X223474003Y-83217652D01*
X223382565Y-83338231D01*
X223327048Y-83479013D01*
X223321114Y-83528428D01*
X223316426Y-83567473D01*
X223316426Y-84553677D01*
X223321171Y-84593187D01*
X223327048Y-84642136D01*
X223327048Y-84642138D01*
X223327049Y-84642139D01*
X223330217Y-84650173D01*
X223382565Y-84782918D01*
X223474003Y-84903497D01*
X223594581Y-84994934D01*
X223594584Y-84994936D01*
X223600414Y-84997235D01*
X223655559Y-85040140D01*
X223678753Y-85106047D01*
X223678926Y-85112590D01*
X223678926Y-86736075D01*
X223659241Y-86803114D01*
X223606437Y-86848869D01*
X223554926Y-86860075D01*
X223136324Y-86860075D01*
X223097279Y-86864763D01*
X223047864Y-86870697D01*
X222907082Y-86926214D01*
X222786503Y-87017652D01*
X222695065Y-87138231D01*
X222639548Y-87279013D01*
X222633614Y-87328428D01*
X222628926Y-87367473D01*
X222628926Y-88753677D01*
X222634552Y-88800529D01*
X222639548Y-88842136D01*
X222695065Y-88982918D01*
X222786503Y-89103497D01*
X222907083Y-89194936D01*
X222939977Y-89207907D01*
X222975416Y-89221882D01*
X223030560Y-89264788D01*
X223053753Y-89330695D01*
X223053926Y-89337237D01*
X223053926Y-89783912D01*
X223034241Y-89850951D01*
X222981437Y-89896706D01*
X222975417Y-89899266D01*
X222907084Y-89926213D01*
X222786503Y-90017652D01*
X222695065Y-90138231D01*
X222639548Y-90279013D01*
X222634292Y-90322790D01*
X222628926Y-90367473D01*
X222628926Y-91753677D01*
X222630856Y-91769745D01*
X222639548Y-91842136D01*
X222639548Y-91842138D01*
X222639549Y-91842139D01*
X222685617Y-91958958D01*
X222695065Y-91982917D01*
X222786503Y-92103497D01*
X222907082Y-92194935D01*
X222907083Y-92194935D01*
X222907084Y-92194936D01*
X223047862Y-92250452D01*
X223136324Y-92261075D01*
X223466461Y-92261075D01*
X223495901Y-92269719D01*
X223525888Y-92276243D01*
X223530903Y-92279997D01*
X223533500Y-92280760D01*
X223554142Y-92297394D01*
X223642607Y-92385859D01*
X223676092Y-92447182D01*
X223678926Y-92473540D01*
X223678926Y-93508559D01*
X223659241Y-93575598D01*
X223606437Y-93621353D01*
X223600418Y-93623913D01*
X223594583Y-93626213D01*
X223474003Y-93717652D01*
X223382565Y-93838231D01*
X223327048Y-93979013D01*
X223322020Y-94020889D01*
X223316426Y-94067473D01*
X223316426Y-95053677D01*
X223319235Y-95077067D01*
X223327048Y-95142136D01*
X223327048Y-95142138D01*
X223327049Y-95142139D01*
X223332280Y-95155404D01*
X223382565Y-95282918D01*
X223474003Y-95403497D01*
X223577169Y-95481730D01*
X223594584Y-95494936D01*
X223600414Y-95497235D01*
X223655559Y-95540140D01*
X223678753Y-95606047D01*
X223678926Y-95612590D01*
X223678926Y-97725291D01*
X223672072Y-97748630D01*
X223669457Y-97772816D01*
X223662404Y-97781556D01*
X223659241Y-97792330D01*
X223640860Y-97808256D01*
X223625582Y-97827192D01*
X223610220Y-97834806D01*
X223606437Y-97838085D01*
X223594011Y-97842970D01*
X223593577Y-97843114D01*
X223512787Y-97869364D01*
X223509500Y-97871038D01*
X223501439Y-97873716D01*
X223470806Y-97874790D01*
X223440335Y-97878066D01*
X223436216Y-97876004D01*
X223431612Y-97876166D01*
X223405265Y-97860511D01*
X223377857Y-97846791D01*
X223374673Y-97843718D01*
X221961042Y-96430088D01*
X221961040Y-96430086D01*
X221901351Y-96395624D01*
X221858314Y-96370776D01*
X221846206Y-96367532D01*
X221834099Y-96364288D01*
X221834096Y-96364287D01*
X221785168Y-96351177D01*
X221743735Y-96340075D01*
X221743734Y-96340075D01*
X217521714Y-96340075D01*
X217454675Y-96320390D01*
X217448081Y-96315845D01*
X217342312Y-96237784D01*
X217342306Y-96237781D01*
X217214126Y-96192928D01*
X217183696Y-96190075D01*
X217183692Y-96190075D01*
X216542391Y-96190075D01*
X216475352Y-96170390D01*
X216454710Y-96153756D01*
X214088542Y-93787588D01*
X214088540Y-93787586D01*
X214006570Y-93740260D01*
X213985814Y-93728276D01*
X213973706Y-93725032D01*
X213961599Y-93721788D01*
X213961596Y-93721787D01*
X213923404Y-93711553D01*
X213871235Y-93697575D01*
X213871234Y-93697575D01*
X209774741Y-93697575D01*
X209768374Y-93695705D01*
X209761848Y-93696903D01*
X209735267Y-93685984D01*
X209707702Y-93677890D01*
X209701844Y-93672254D01*
X209697218Y-93670354D01*
X209685411Y-93656444D01*
X209673093Y-93644593D01*
X209666650Y-93635371D01*
X209665288Y-93631917D01*
X209651923Y-93614292D01*
X209650526Y-93612293D01*
X209640141Y-93581395D01*
X209628547Y-93550888D01*
X209629064Y-93548436D01*
X209628267Y-93546064D01*
X209636237Y-93514449D01*
X209642975Y-93482524D01*
X209644735Y-93480741D01*
X209645347Y-93478315D01*
X209669154Y-93456018D01*
X209692074Y-93432813D01*
X209694640Y-93432149D01*
X209696344Y-93430554D01*
X209711726Y-93427732D01*
X209752174Y-93417275D01*
X218270297Y-93417275D01*
X218270298Y-93417275D01*
X218360662Y-93393061D01*
X218384876Y-93386574D01*
X218487603Y-93327264D01*
X219101217Y-92713650D01*
X219160527Y-92610923D01*
X219179210Y-92541196D01*
X219191228Y-92496345D01*
X219191228Y-91082768D01*
X219173486Y-91016556D01*
X219167014Y-90992402D01*
X219167014Y-90992401D01*
X219162317Y-90974871D01*
X219160527Y-90968190D01*
X219101218Y-90865463D01*
X217186481Y-88950726D01*
X217152996Y-88889403D01*
X217156230Y-88824732D01*
X217212904Y-88650310D01*
X217244927Y-88448128D01*
X217244927Y-88243424D01*
X217212904Y-88041242D01*
X217212903Y-88041240D01*
X217158414Y-87873540D01*
X217149647Y-87846557D01*
X217149645Y-87846553D01*
X217149645Y-87846552D01*
X217100384Y-87749873D01*
X217056714Y-87664166D01*
X217034091Y-87633028D01*
X216936398Y-87498562D01*
X216791640Y-87353804D01*
X216626040Y-87233491D01*
X216626039Y-87233490D01*
X216626037Y-87233489D01*
X216559638Y-87199657D01*
X216443650Y-87140557D01*
X216248961Y-87077298D01*
X216074422Y-87049654D01*
X216046779Y-87045276D01*
X215842075Y-87045276D01*
X215817756Y-87049127D01*
X215639892Y-87077298D01*
X215445203Y-87140557D01*
X215262813Y-87233491D01*
X215097213Y-87353804D01*
X214952455Y-87498562D01*
X214832142Y-87664162D01*
X214739208Y-87846553D01*
X214739207Y-87846557D01*
X214736859Y-87853785D01*
X214736858Y-87853788D01*
X214697419Y-87911463D01*
X214633061Y-87938661D01*
X214564214Y-87926746D01*
X214512739Y-87879501D01*
X214494927Y-87815469D01*
X214494927Y-87613425D01*
X214462904Y-87411242D01*
X214419939Y-87279011D01*
X214399647Y-87216558D01*
X214399645Y-87216555D01*
X214399645Y-87216553D01*
X214341878Y-87103181D01*
X214306714Y-87034167D01*
X214253172Y-86960472D01*
X214186398Y-86868563D01*
X214041640Y-86723805D01*
X213876040Y-86603492D01*
X213876039Y-86603491D01*
X213876037Y-86603490D01*
X213819080Y-86574468D01*
X213693650Y-86510558D01*
X213498961Y-86447299D01*
X213324422Y-86419655D01*
X213296779Y-86415277D01*
X213092075Y-86415277D01*
X213067756Y-86419128D01*
X212889892Y-86447299D01*
X212695203Y-86510558D01*
X212512813Y-86603492D01*
X212347213Y-86723805D01*
X212202455Y-86868563D01*
X212082142Y-87034163D01*
X211989208Y-87216553D01*
X211925949Y-87411242D01*
X211893927Y-87613425D01*
X211893927Y-87815466D01*
X211874242Y-87882505D01*
X211821438Y-87928260D01*
X211752280Y-87938204D01*
X211688724Y-87909179D01*
X211651997Y-87853786D01*
X211649648Y-87846557D01*
X211556715Y-87664166D01*
X211534092Y-87633028D01*
X211436399Y-87498562D01*
X211291641Y-87353804D01*
X211126041Y-87233491D01*
X211126040Y-87233490D01*
X211126038Y-87233489D01*
X211059639Y-87199657D01*
X210943651Y-87140557D01*
X210748962Y-87077298D01*
X210574423Y-87049654D01*
X210546780Y-87045276D01*
X210342076Y-87045276D01*
X210274682Y-87055950D01*
X210139892Y-87077299D01*
X210139889Y-87077299D01*
X209965474Y-87133970D01*
X209895632Y-87135965D01*
X209839475Y-87103720D01*
X208853745Y-86117990D01*
X208820260Y-86056667D01*
X208817426Y-86030309D01*
X208817426Y-84380890D01*
X208837111Y-84313851D01*
X208876468Y-84276749D01*
X208876326Y-84276562D01*
X208878071Y-84275238D01*
X208880655Y-84272803D01*
X208883080Y-84271438D01*
X208883084Y-84271437D01*
X209000926Y-84182075D01*
X209090288Y-84064233D01*
X209144543Y-83926652D01*
X209154926Y-83840193D01*
X209154926Y-83280957D01*
X209144543Y-83194498D01*
X209090288Y-83056917D01*
X209090286Y-83056914D01*
X209000926Y-82939074D01*
X208883086Y-82849714D01*
X208883084Y-82849713D01*
X208745503Y-82795458D01*
X208745502Y-82795457D01*
X208745500Y-82795457D01*
X208659045Y-82785075D01*
X208659044Y-82785075D01*
X208074808Y-82785075D01*
X208074807Y-82785075D01*
X207988351Y-82795457D01*
X207988350Y-82795457D01*
X207850765Y-82849714D01*
X207732925Y-82939074D01*
X207643565Y-83056914D01*
X207589308Y-83194499D01*
X207589308Y-83194500D01*
X207578926Y-83280956D01*
X207578926Y-83840193D01*
X207589308Y-83926649D01*
X207589308Y-83926650D01*
X207643565Y-84064235D01*
X207732925Y-84182075D01*
X207850768Y-84271437D01*
X207853197Y-84272803D01*
X207854982Y-84274632D01*
X207857526Y-84276562D01*
X207857236Y-84276943D01*
X207901986Y-84322816D01*
X207916426Y-84380890D01*
X207916426Y-86327583D01*
X207939924Y-86415277D01*
X207939923Y-86415277D01*
X207939924Y-86415279D01*
X207947126Y-86442159D01*
X207947125Y-86442159D01*
X207986094Y-86509653D01*
X208006437Y-86544888D01*
X208006439Y-86544890D01*
X209202372Y-87740823D01*
X209235857Y-87802146D01*
X209232622Y-87866822D01*
X209175951Y-88041237D01*
X209175951Y-88041240D01*
X209143928Y-88243424D01*
X209143928Y-88448127D01*
X209175950Y-88650310D01*
X209239209Y-88844999D01*
X209332143Y-89027389D01*
X209452456Y-89192989D01*
X209452462Y-89192995D01*
X209597209Y-89337742D01*
X209673155Y-89392920D01*
X209715821Y-89448249D01*
X209721800Y-89517862D01*
X209689195Y-89579658D01*
X209662033Y-89599691D01*
X209662415Y-89600313D01*
X209658263Y-89602857D01*
X209575322Y-89663116D01*
X210397982Y-90485776D01*
X210391767Y-90485776D01*
X210290034Y-90513035D01*
X210198822Y-90565696D01*
X210124348Y-90640170D01*
X210071687Y-90731382D01*
X210044428Y-90833115D01*
X210044428Y-90839329D01*
X209221768Y-90016670D01*
X209161512Y-90099606D01*
X209054325Y-90309973D01*
X208981362Y-90534528D01*
X208944428Y-90767723D01*
X208944428Y-91003828D01*
X208981362Y-91237023D01*
X209054325Y-91461578D01*
X209161515Y-91671950D01*
X209221766Y-91754880D01*
X209221768Y-91754881D01*
X210044428Y-90932221D01*
X210044428Y-90938437D01*
X210071687Y-91040170D01*
X210124348Y-91131382D01*
X210198822Y-91205856D01*
X210290034Y-91258517D01*
X210391767Y-91285776D01*
X210397982Y-91285776D01*
X209575321Y-92108434D01*
X209658256Y-92168690D01*
X209868626Y-92275879D01*
X209873047Y-92277710D01*
X209927454Y-92321546D01*
X209949525Y-92387838D01*
X209932251Y-92455539D01*
X209881118Y-92503154D01*
X209825604Y-92516275D01*
X209511092Y-92516275D01*
X209444053Y-92496590D01*
X209423411Y-92479956D01*
X207266245Y-90322790D01*
X207232760Y-90261467D01*
X207229926Y-90235109D01*
X207229926Y-89855956D01*
X207221274Y-89783912D01*
X207219543Y-89769498D01*
X207165288Y-89631917D01*
X207151893Y-89614253D01*
X207075926Y-89514074D01*
X206958086Y-89424714D01*
X206958084Y-89424713D01*
X206820503Y-89370458D01*
X206820502Y-89370457D01*
X206820500Y-89370457D01*
X206734045Y-89360075D01*
X206734044Y-89360075D01*
X206174808Y-89360075D01*
X206174807Y-89360075D01*
X206088351Y-89370457D01*
X206088350Y-89370457D01*
X206080907Y-89373392D01*
X206074414Y-89375953D01*
X206004829Y-89382234D01*
X205942893Y-89349897D01*
X205908272Y-89289208D01*
X205904926Y-89260598D01*
X205904926Y-84886040D01*
X205924611Y-84819001D01*
X205941245Y-84798359D01*
X206367210Y-84372394D01*
X206428533Y-84338909D01*
X206454891Y-84336075D01*
X206834045Y-84336075D01*
X206855658Y-84333479D01*
X206920503Y-84325692D01*
X207058084Y-84271437D01*
X207175926Y-84182075D01*
X207265288Y-84064233D01*
X207319543Y-83926652D01*
X207329926Y-83840193D01*
X207329926Y-83280957D01*
X207319543Y-83194498D01*
X207265288Y-83056917D01*
X207265286Y-83056914D01*
X207175926Y-82939074D01*
X207058086Y-82849714D01*
X207058084Y-82849713D01*
X206920503Y-82795458D01*
X206920502Y-82795457D01*
X206920500Y-82795457D01*
X206834045Y-82785075D01*
X206834044Y-82785075D01*
X206786125Y-82785075D01*
X206719086Y-82765390D01*
X206673331Y-82712586D01*
X206663387Y-82643428D01*
X206692412Y-82579872D01*
X206698444Y-82573394D01*
X210184444Y-79087394D01*
X210245767Y-79053909D01*
X210272125Y-79051075D01*
X211648395Y-79051075D01*
X211715434Y-79070760D01*
X211758880Y-79118780D01*
X211842141Y-79282189D01*
X211962454Y-79447788D01*
X211962460Y-79447794D01*
X212107207Y-79592541D01*
X212183153Y-79647719D01*
X212225819Y-79703048D01*
X212231798Y-79772661D01*
X212199193Y-79834457D01*
X212172031Y-79854490D01*
X212172413Y-79855112D01*
X212168261Y-79857656D01*
X212085320Y-79917915D01*
X212907980Y-80740575D01*
X212901765Y-80740575D01*
X212800032Y-80767834D01*
X212708820Y-80820495D01*
X212634346Y-80894969D01*
X212581685Y-80986181D01*
X212554426Y-81087914D01*
X212554426Y-81094129D01*
X211731766Y-80271469D01*
X211671510Y-80354405D01*
X211564323Y-80564772D01*
X211491360Y-80789327D01*
X211454426Y-81022522D01*
X211454426Y-81258627D01*
X211491360Y-81491822D01*
X211564323Y-81716377D01*
X211671513Y-81926749D01*
X211731764Y-82009679D01*
X211731766Y-82009680D01*
X212554426Y-81187020D01*
X212554426Y-81193236D01*
X212581685Y-81294969D01*
X212634346Y-81386181D01*
X212708820Y-81460655D01*
X212800032Y-81513316D01*
X212901765Y-81540575D01*
X212907980Y-81540575D01*
X212085319Y-82363233D01*
X212168254Y-82423489D01*
X212378623Y-82530677D01*
X212603178Y-82603640D01*
X212603177Y-82603640D01*
X212836374Y-82640575D01*
X213072478Y-82640575D01*
X213305673Y-82603640D01*
X213530228Y-82530677D01*
X213740589Y-82423493D01*
X213740595Y-82423489D01*
X213823530Y-82363233D01*
X213823531Y-82363233D01*
X213000872Y-81540575D01*
X213007087Y-81540575D01*
X213108820Y-81513316D01*
X213200032Y-81460655D01*
X213274506Y-81386181D01*
X213327167Y-81294969D01*
X213354426Y-81193236D01*
X213354426Y-81187021D01*
X214177084Y-82009680D01*
X214177084Y-82009679D01*
X214237340Y-81926744D01*
X214237344Y-81926738D01*
X214344528Y-81716377D01*
X214417491Y-81491822D01*
X214454426Y-81258627D01*
X214454426Y-81022522D01*
X214417491Y-80789327D01*
X214344528Y-80564772D01*
X214237340Y-80354403D01*
X214177084Y-80271469D01*
X214177084Y-80271468D01*
X213354426Y-81094127D01*
X213354426Y-81087914D01*
X213327167Y-80986181D01*
X213274506Y-80894969D01*
X213200032Y-80820495D01*
X213108820Y-80767834D01*
X213007087Y-80740575D01*
X213000873Y-80740575D01*
X213823531Y-79917915D01*
X213823530Y-79917913D01*
X213740596Y-79857659D01*
X213736445Y-79855115D01*
X213737265Y-79853775D01*
X213691497Y-79810555D01*
X213674696Y-79742735D01*
X213697229Y-79676599D01*
X213725697Y-79647719D01*
X213801645Y-79592541D01*
X213946392Y-79447794D01*
X213946394Y-79447790D01*
X213946397Y-79447788D01*
X213999158Y-79375165D01*
X214066713Y-79282185D01*
X214159646Y-79099794D01*
X214222903Y-78905109D01*
X214254926Y-78702927D01*
X214254926Y-78498223D01*
X214222903Y-78296041D01*
X214159646Y-78101356D01*
X214159644Y-78101353D01*
X214159644Y-78101351D01*
X214125929Y-78035182D01*
X214066713Y-77918965D01*
X214016971Y-77850500D01*
X213946397Y-77753361D01*
X213801639Y-77608603D01*
X213636040Y-77488290D01*
X213629432Y-77484923D01*
X213543343Y-77441058D01*
X213492549Y-77393086D01*
X213475754Y-77325265D01*
X213498291Y-77259130D01*
X213543343Y-77220091D01*
X213636036Y-77172862D01*
X213657196Y-77157488D01*
X213801639Y-77052546D01*
X213801641Y-77052543D01*
X213801645Y-77052541D01*
X213946392Y-76907794D01*
X213946394Y-76907790D01*
X213946397Y-76907788D01*
X214010022Y-76820214D01*
X214066713Y-76742185D01*
X214159646Y-76559794D01*
X214222903Y-76365109D01*
X214254926Y-76162927D01*
X214254926Y-75958223D01*
X214222903Y-75756040D01*
X214159644Y-75561351D01*
X214125929Y-75495182D01*
X214066713Y-75378965D01*
X214058982Y-75368324D01*
X213946397Y-75213361D01*
X213801639Y-75068603D01*
X213636039Y-74948290D01*
X213636038Y-74948289D01*
X213636036Y-74948288D01*
X213579079Y-74919266D01*
X213453649Y-74855356D01*
X213258960Y-74792097D01*
X213084421Y-74764453D01*
X213056778Y-74760075D01*
X212852074Y-74760075D01*
X212827755Y-74763926D01*
X212649891Y-74792097D01*
X212455202Y-74855356D01*
X212272812Y-74948290D01*
X212107212Y-75068603D01*
X211962454Y-75213361D01*
X211842141Y-75378961D01*
X211749207Y-75561351D01*
X211685948Y-75756040D01*
X211653926Y-75958223D01*
X211653926Y-76162926D01*
X211685948Y-76365109D01*
X211749207Y-76559798D01*
X211842141Y-76742188D01*
X211962454Y-76907788D01*
X212107212Y-77052546D01*
X212262175Y-77165131D01*
X212272816Y-77172862D01*
X212364266Y-77219458D01*
X212365506Y-77220090D01*
X212416302Y-77268065D01*
X212433097Y-77335886D01*
X212410560Y-77402021D01*
X212365506Y-77441060D01*
X212272812Y-77488290D01*
X212107212Y-77608603D01*
X211962454Y-77753361D01*
X211842141Y-77918960D01*
X211758880Y-78082370D01*
X211710905Y-78133166D01*
X211648395Y-78150075D01*
X209974851Y-78150075D01*
X209884485Y-78174288D01*
X209884484Y-78174287D01*
X209860276Y-78180774D01*
X209860273Y-78180775D01*
X209757546Y-78240086D01*
X209757543Y-78240088D01*
X204268939Y-83728692D01*
X204268935Y-83728698D01*
X204209627Y-83831421D01*
X204209626Y-83831426D01*
X204178926Y-83946000D01*
X204178926Y-93740260D01*
X204159241Y-93807299D01*
X204119883Y-93844400D01*
X204120026Y-93844588D01*
X204118280Y-93845911D01*
X204115697Y-93848347D01*
X204113268Y-93849712D01*
X203995425Y-93939074D01*
X203906065Y-94056914D01*
X203906064Y-94056917D01*
X203857361Y-94180421D01*
X203851809Y-94194499D01*
X203841426Y-94280956D01*
X203841426Y-94840193D01*
X203851808Y-94926649D01*
X203851808Y-94926650D01*
X203871822Y-94977401D01*
X203900562Y-95050282D01*
X203906065Y-95064235D01*
X203995425Y-95182075D01*
X204113265Y-95271435D01*
X204113268Y-95271437D01*
X204250849Y-95325692D01*
X204308488Y-95332614D01*
X204337307Y-95336075D01*
X204337308Y-95336075D01*
X204921545Y-95336075D01*
X204943158Y-95333479D01*
X205008003Y-95325692D01*
X205145584Y-95271437D01*
X205263426Y-95182075D01*
X205352788Y-95064233D01*
X205407043Y-94926652D01*
X205417426Y-94840193D01*
X205417426Y-94280957D01*
X205407043Y-94194498D01*
X205352788Y-94056917D01*
X205330830Y-94027961D01*
X205263426Y-93939074D01*
X205145583Y-93849712D01*
X205143155Y-93848347D01*
X205141369Y-93846517D01*
X205138826Y-93844588D01*
X205139115Y-93844206D01*
X205094366Y-93798334D01*
X205079926Y-93740260D01*
X205079926Y-91535040D01*
X205099611Y-91468001D01*
X205152415Y-91422246D01*
X205221573Y-91412302D01*
X205285129Y-91441327D01*
X205291607Y-91447359D01*
X205642607Y-91798359D01*
X205676092Y-91859682D01*
X205678926Y-91886040D01*
X205678926Y-92265193D01*
X205689308Y-92351649D01*
X205689308Y-92351650D01*
X205703579Y-92387838D01*
X205737375Y-92473540D01*
X205743565Y-92489235D01*
X205832925Y-92607074D01*
X205832926Y-92607075D01*
X205950768Y-92696437D01*
X205950771Y-92696438D01*
X205954850Y-92699531D01*
X205996374Y-92755723D01*
X206003926Y-92798336D01*
X206003926Y-93740260D01*
X205984241Y-93807299D01*
X205944883Y-93844400D01*
X205945026Y-93844588D01*
X205943280Y-93845911D01*
X205940697Y-93848347D01*
X205938268Y-93849712D01*
X205820425Y-93939074D01*
X205731065Y-94056914D01*
X205731064Y-94056917D01*
X205682361Y-94180421D01*
X205676809Y-94194499D01*
X205666426Y-94280956D01*
X205666426Y-94840193D01*
X205676808Y-94926649D01*
X205676808Y-94926650D01*
X205696822Y-94977401D01*
X205725562Y-95050282D01*
X205731065Y-95064235D01*
X205820425Y-95182075D01*
X205938265Y-95271435D01*
X205938268Y-95271437D01*
X206075849Y-95325692D01*
X206133488Y-95332614D01*
X206162307Y-95336075D01*
X206162308Y-95336075D01*
X206746545Y-95336075D01*
X206768158Y-95333479D01*
X206833003Y-95325692D01*
X206970584Y-95271437D01*
X207088426Y-95182075D01*
X207177788Y-95064233D01*
X207177788Y-95064232D01*
X207180884Y-95060150D01*
X207237076Y-95018627D01*
X207279688Y-95011075D01*
X208403461Y-95011075D01*
X208470500Y-95030760D01*
X208516255Y-95083564D01*
X208526199Y-95152722D01*
X208497174Y-95216278D01*
X208457497Y-95244377D01*
X208458160Y-95245557D01*
X208450765Y-95249714D01*
X208332925Y-95339074D01*
X208243565Y-95456914D01*
X208189308Y-95594499D01*
X208189308Y-95594500D01*
X208178926Y-95680956D01*
X208178926Y-96265193D01*
X208189308Y-96351649D01*
X208189308Y-96351650D01*
X208243565Y-96489235D01*
X208332925Y-96607074D01*
X208332926Y-96607075D01*
X208450768Y-96696437D01*
X208450771Y-96696438D01*
X208454850Y-96699531D01*
X208496374Y-96755723D01*
X208503926Y-96798336D01*
X208503926Y-97964883D01*
X208513675Y-98001266D01*
X208534627Y-98079461D01*
X208593937Y-98182188D01*
X208593939Y-98182190D01*
X210102808Y-99691061D01*
X210102812Y-99691064D01*
X210102813Y-99691065D01*
X210118832Y-99700313D01*
X210126015Y-99706731D01*
X210131820Y-99708942D01*
X210156603Y-99734065D01*
X210168494Y-99750176D01*
X210192464Y-99815805D01*
X210177148Y-99883976D01*
X210131848Y-99930539D01*
X210127872Y-99932890D01*
X210127864Y-99932896D01*
X210011747Y-100049013D01*
X210011740Y-100049022D01*
X209928144Y-100190376D01*
X209882325Y-100348088D01*
X209882130Y-100350573D01*
X209882131Y-100350575D01*
X212555960Y-100350575D01*
X212622999Y-100370260D01*
X212643641Y-100386894D01*
X215044566Y-102787819D01*
X215078051Y-102849142D01*
X215073067Y-102918834D01*
X215031195Y-102974767D01*
X214965731Y-102999184D01*
X214956885Y-102999500D01*
X202624500Y-102999500D01*
X202557461Y-102979815D01*
X202511706Y-102927011D01*
X202500500Y-102875500D01*
X202500500Y-99878711D01*
X203649500Y-99878711D01*
X203649500Y-100121288D01*
X203681161Y-100361785D01*
X203743947Y-100596104D01*
X203811329Y-100758778D01*
X203836776Y-100820212D01*
X203958064Y-101030289D01*
X203958066Y-101030292D01*
X203958067Y-101030293D01*
X204105733Y-101222736D01*
X204105739Y-101222743D01*
X204277256Y-101394260D01*
X204277263Y-101394266D01*
X204281706Y-101397675D01*
X204469711Y-101541936D01*
X204679788Y-101663224D01*
X204903900Y-101756054D01*
X205138211Y-101818838D01*
X205318586Y-101842584D01*
X205378711Y-101850500D01*
X205378712Y-101850500D01*
X205621289Y-101850500D01*
X205669388Y-101844167D01*
X205861789Y-101818838D01*
X206096100Y-101756054D01*
X206320212Y-101663224D01*
X206530289Y-101541936D01*
X206722738Y-101394265D01*
X206894265Y-101222738D01*
X207041936Y-101030289D01*
X207145693Y-100850576D01*
X209882130Y-100850576D01*
X209882325Y-100853061D01*
X209928144Y-101010773D01*
X210011740Y-101152127D01*
X210011747Y-101152136D01*
X210127864Y-101268253D01*
X210127873Y-101268260D01*
X210269229Y-101351857D01*
X210269232Y-101351858D01*
X210426930Y-101397674D01*
X210426936Y-101397675D01*
X210463776Y-101400574D01*
X210463792Y-101400575D01*
X210954426Y-101400575D01*
X211454426Y-101400575D01*
X211945060Y-101400575D01*
X211945075Y-101400574D01*
X211981915Y-101397675D01*
X211981921Y-101397674D01*
X212139619Y-101351858D01*
X212139622Y-101351857D01*
X212280978Y-101268260D01*
X212280987Y-101268253D01*
X212397104Y-101152136D01*
X212397111Y-101152127D01*
X212480707Y-101010773D01*
X212526526Y-100853061D01*
X212526721Y-100850576D01*
X212526721Y-100850575D01*
X211454426Y-100850575D01*
X211454426Y-101400575D01*
X210954426Y-101400575D01*
X210954426Y-100850575D01*
X209882131Y-100850575D01*
X209882130Y-100850576D01*
X207145693Y-100850576D01*
X207163224Y-100820212D01*
X207256054Y-100596100D01*
X207318838Y-100361789D01*
X207350500Y-100121288D01*
X207350500Y-99878712D01*
X207349608Y-99871940D01*
X207338633Y-99788569D01*
X207318838Y-99638211D01*
X207256054Y-99403900D01*
X207163224Y-99179788D01*
X207041936Y-98969711D01*
X206894265Y-98777262D01*
X206894260Y-98777256D01*
X206722743Y-98605739D01*
X206722736Y-98605733D01*
X206530293Y-98458067D01*
X206530292Y-98458066D01*
X206530289Y-98458064D01*
X206320212Y-98336776D01*
X206310089Y-98332583D01*
X206096104Y-98243947D01*
X205880124Y-98186075D01*
X205861789Y-98181162D01*
X205861788Y-98181161D01*
X205861785Y-98181161D01*
X205621289Y-98149500D01*
X205621288Y-98149500D01*
X205378712Y-98149500D01*
X205378711Y-98149500D01*
X205138214Y-98181161D01*
X204903895Y-98243947D01*
X204679794Y-98336773D01*
X204679785Y-98336777D01*
X204469706Y-98458067D01*
X204277263Y-98605733D01*
X204277256Y-98605739D01*
X204105739Y-98777256D01*
X204105733Y-98777263D01*
X203958067Y-98969706D01*
X203836777Y-99179785D01*
X203836773Y-99179794D01*
X203743947Y-99403895D01*
X203681161Y-99638214D01*
X203649500Y-99878711D01*
X202500500Y-99878711D01*
X202500500Y-75878711D01*
X203649500Y-75878711D01*
X203649500Y-76121288D01*
X203681161Y-76361785D01*
X203743947Y-76596104D01*
X203804456Y-76742185D01*
X203836776Y-76820212D01*
X203958064Y-77030289D01*
X203958066Y-77030292D01*
X203958067Y-77030293D01*
X204105733Y-77222736D01*
X204105739Y-77222743D01*
X204277256Y-77394260D01*
X204277263Y-77394266D01*
X204390321Y-77481018D01*
X204469711Y-77541936D01*
X204679788Y-77663224D01*
X204875269Y-77744195D01*
X204897398Y-77753361D01*
X204903900Y-77756054D01*
X205138211Y-77818838D01*
X205318586Y-77842584D01*
X205378711Y-77850500D01*
X205378712Y-77850500D01*
X205621289Y-77850500D01*
X205669388Y-77844167D01*
X205861789Y-77818838D01*
X206096100Y-77756054D01*
X206320212Y-77663224D01*
X206530289Y-77541936D01*
X206722738Y-77394265D01*
X206894265Y-77222738D01*
X207041936Y-77030289D01*
X207163224Y-76820212D01*
X207256054Y-76596100D01*
X207318838Y-76361789D01*
X207350500Y-76121288D01*
X207350500Y-75878712D01*
X207318838Y-75638211D01*
X207256054Y-75403900D01*
X207163224Y-75179788D01*
X207041936Y-74969711D01*
X206894265Y-74777262D01*
X206894260Y-74777256D01*
X206722743Y-74605739D01*
X206722736Y-74605733D01*
X206530293Y-74458067D01*
X206530292Y-74458066D01*
X206530289Y-74458064D01*
X206320212Y-74336776D01*
X206320205Y-74336773D01*
X206096104Y-74243947D01*
X205861785Y-74181161D01*
X205621289Y-74149500D01*
X205621288Y-74149500D01*
X205378712Y-74149500D01*
X205378711Y-74149500D01*
X205138214Y-74181161D01*
X204903895Y-74243947D01*
X204679794Y-74336773D01*
X204679785Y-74336777D01*
X204469706Y-74458067D01*
X204277263Y-74605733D01*
X204277256Y-74605739D01*
X204105739Y-74777256D01*
X204105733Y-74777263D01*
X203958067Y-74969706D01*
X203836777Y-75179785D01*
X203836773Y-75179794D01*
X203743947Y-75403895D01*
X203681161Y-75638214D01*
X203649500Y-75878711D01*
X202500500Y-75878711D01*
X202500500Y-73124500D01*
X202520185Y-73057461D01*
X202572989Y-73011706D01*
X202624500Y-73000500D01*
X216375500Y-73000500D01*
X216442539Y-73020185D01*
G37*
%TD.AperFunction*%
%TA.AperFunction,Conductor*%
G36*
X246442539Y-73020185D02*
G01*
X246488294Y-73072989D01*
X246499500Y-73124500D01*
X246499500Y-102875500D01*
X246479815Y-102942539D01*
X246427011Y-102988294D01*
X246375500Y-102999500D01*
X227916858Y-102999500D01*
X227849819Y-102979815D01*
X227804064Y-102927011D01*
X227794120Y-102857853D01*
X227823145Y-102794297D01*
X227829177Y-102787819D01*
X230738285Y-99878711D01*
X241649500Y-99878711D01*
X241649500Y-100121288D01*
X241681161Y-100361785D01*
X241743947Y-100596104D01*
X241811329Y-100758778D01*
X241836776Y-100820212D01*
X241958064Y-101030289D01*
X241958066Y-101030292D01*
X241958067Y-101030293D01*
X242105733Y-101222736D01*
X242105739Y-101222743D01*
X242277256Y-101394260D01*
X242277263Y-101394266D01*
X242281706Y-101397675D01*
X242469711Y-101541936D01*
X242679788Y-101663224D01*
X242903900Y-101756054D01*
X243138211Y-101818838D01*
X243318586Y-101842584D01*
X243378711Y-101850500D01*
X243378712Y-101850500D01*
X243621289Y-101850500D01*
X243669388Y-101844167D01*
X243861789Y-101818838D01*
X244096100Y-101756054D01*
X244320212Y-101663224D01*
X244530289Y-101541936D01*
X244722738Y-101394265D01*
X244894265Y-101222738D01*
X245041936Y-101030289D01*
X245163224Y-100820212D01*
X245256054Y-100596100D01*
X245318838Y-100361789D01*
X245350500Y-100121288D01*
X245350500Y-99878712D01*
X245349608Y-99871940D01*
X245338633Y-99788569D01*
X245318838Y-99638211D01*
X245256054Y-99403900D01*
X245163224Y-99179788D01*
X245041936Y-98969711D01*
X244894265Y-98777262D01*
X244894260Y-98777256D01*
X244722743Y-98605739D01*
X244722736Y-98605733D01*
X244530293Y-98458067D01*
X244530292Y-98458066D01*
X244530289Y-98458064D01*
X244320212Y-98336776D01*
X244310089Y-98332583D01*
X244096104Y-98243947D01*
X243880124Y-98186075D01*
X243861789Y-98181162D01*
X243861788Y-98181161D01*
X243861785Y-98181161D01*
X243621289Y-98149500D01*
X243621288Y-98149500D01*
X243378712Y-98149500D01*
X243378711Y-98149500D01*
X243138214Y-98181161D01*
X242903895Y-98243947D01*
X242679794Y-98336773D01*
X242679785Y-98336777D01*
X242469706Y-98458067D01*
X242277263Y-98605733D01*
X242277256Y-98605739D01*
X242105739Y-98777256D01*
X242105733Y-98777263D01*
X241958067Y-98969706D01*
X241836777Y-99179785D01*
X241836773Y-99179794D01*
X241743947Y-99403895D01*
X241681161Y-99638214D01*
X241649500Y-99878711D01*
X230738285Y-99878711D01*
X230830024Y-99786972D01*
X232158932Y-98458064D01*
X233554916Y-97062080D01*
X233601304Y-96981733D01*
X233614226Y-96959352D01*
X233644927Y-96844775D01*
X233644927Y-92196606D01*
X233664612Y-92129567D01*
X233712632Y-92086121D01*
X233876037Y-92002862D01*
X233936466Y-91958958D01*
X234041640Y-91882546D01*
X234041642Y-91882543D01*
X234041646Y-91882541D01*
X234186393Y-91737794D01*
X234186395Y-91737790D01*
X234186398Y-91737788D01*
X234239159Y-91665165D01*
X234306714Y-91572185D01*
X234399647Y-91389794D01*
X234401997Y-91382560D01*
X234441432Y-91324888D01*
X234505790Y-91297689D01*
X234574637Y-91309603D01*
X234626113Y-91356846D01*
X234643927Y-91420881D01*
X234643927Y-91622925D01*
X234675949Y-91825108D01*
X234739208Y-92019797D01*
X234797447Y-92134096D01*
X234829694Y-92197384D01*
X234832142Y-92202187D01*
X234952455Y-92367787D01*
X235097213Y-92512545D01*
X235232623Y-92610924D01*
X235262817Y-92632861D01*
X235379034Y-92692077D01*
X235445203Y-92725792D01*
X235445205Y-92725792D01*
X235445208Y-92725794D01*
X235537320Y-92755723D01*
X235639892Y-92789051D01*
X235698515Y-92798336D01*
X235842075Y-92821074D01*
X235842076Y-92821074D01*
X236046778Y-92821074D01*
X236046779Y-92821074D01*
X236248961Y-92789051D01*
X236443646Y-92725794D01*
X236626037Y-92632861D01*
X236752204Y-92541196D01*
X236791640Y-92512545D01*
X236791642Y-92512542D01*
X236791646Y-92512540D01*
X236936393Y-92367793D01*
X236936395Y-92367789D01*
X236936398Y-92367787D01*
X237000180Y-92279997D01*
X237056714Y-92202184D01*
X237149647Y-92019793D01*
X237212904Y-91825108D01*
X237244927Y-91622926D01*
X237244927Y-91420884D01*
X237264612Y-91353845D01*
X237317416Y-91308090D01*
X237386574Y-91298146D01*
X237450130Y-91327171D01*
X237486857Y-91382565D01*
X237489206Y-91389794D01*
X237515463Y-91441327D01*
X237582141Y-91572188D01*
X237702454Y-91737788D01*
X237847212Y-91882546D01*
X237985364Y-91982917D01*
X238012816Y-92002862D01*
X238107198Y-92050952D01*
X238195202Y-92095793D01*
X238195204Y-92095793D01*
X238195207Y-92095795D01*
X238238095Y-92109730D01*
X238389891Y-92159052D01*
X238450743Y-92168690D01*
X238592074Y-92191075D01*
X238592075Y-92191075D01*
X238796777Y-92191075D01*
X238796778Y-92191075D01*
X238998960Y-92159052D01*
X239193645Y-92095795D01*
X239376036Y-92002862D01*
X239469016Y-91935307D01*
X239541639Y-91882546D01*
X239541641Y-91882543D01*
X239541645Y-91882541D01*
X239686392Y-91737794D01*
X239686394Y-91737790D01*
X239686397Y-91737788D01*
X239739158Y-91665165D01*
X239806713Y-91572185D01*
X239899646Y-91389794D01*
X239962903Y-91195109D01*
X239994926Y-90992927D01*
X239994926Y-90788223D01*
X239991679Y-90767723D01*
X239962903Y-90586040D01*
X239939182Y-90513035D01*
X239906229Y-90411619D01*
X239904235Y-90341781D01*
X239936478Y-90285624D01*
X240505915Y-89716189D01*
X240565225Y-89613462D01*
X240571711Y-89589250D01*
X240571712Y-89589250D01*
X240571712Y-89589246D01*
X240595926Y-89498884D01*
X240595926Y-85692266D01*
X240565225Y-85577689D01*
X240565225Y-85577688D01*
X240505915Y-85474961D01*
X239278745Y-84247791D01*
X239245260Y-84186468D01*
X239242426Y-84160110D01*
X239242426Y-83780956D01*
X239232043Y-83694500D01*
X239232043Y-83694499D01*
X239232043Y-83694498D01*
X239177788Y-83556917D01*
X239148210Y-83517912D01*
X239088426Y-83439074D01*
X238970586Y-83349714D01*
X238970584Y-83349713D01*
X238833003Y-83295458D01*
X238833002Y-83295457D01*
X238833000Y-83295457D01*
X238746545Y-83285075D01*
X238746544Y-83285075D01*
X238162308Y-83285075D01*
X238162307Y-83285075D01*
X238075851Y-83295457D01*
X238075850Y-83295457D01*
X237938265Y-83349714D01*
X237820425Y-83439074D01*
X237731065Y-83556914D01*
X237676808Y-83694499D01*
X237676808Y-83694500D01*
X237666426Y-83780956D01*
X237666426Y-84340193D01*
X237676808Y-84426649D01*
X237676808Y-84426650D01*
X237731065Y-84564235D01*
X237820425Y-84682075D01*
X237893611Y-84737573D01*
X237938268Y-84771437D01*
X238075849Y-84825692D01*
X238133488Y-84832614D01*
X238162307Y-84836075D01*
X238162308Y-84836075D01*
X238541461Y-84836075D01*
X238608500Y-84855760D01*
X238629142Y-84872394D01*
X239658607Y-85901859D01*
X239692092Y-85963182D01*
X239694926Y-85989540D01*
X239694926Y-86980015D01*
X239675241Y-87047054D01*
X239622437Y-87092809D01*
X239553279Y-87102753D01*
X239498041Y-87080333D01*
X239480601Y-87067662D01*
X239270228Y-86960472D01*
X239045673Y-86887509D01*
X239045674Y-86887509D01*
X238812478Y-86850575D01*
X238576374Y-86850575D01*
X238343178Y-86887509D01*
X238118623Y-86960472D01*
X237908256Y-87067659D01*
X237825320Y-87127915D01*
X238647980Y-87950575D01*
X238641765Y-87950575D01*
X238540032Y-87977834D01*
X238448820Y-88030495D01*
X238374346Y-88104969D01*
X238321685Y-88196181D01*
X238294426Y-88297914D01*
X238294426Y-88304129D01*
X237471766Y-87481469D01*
X237471765Y-87481469D01*
X237443703Y-87520094D01*
X237388373Y-87562759D01*
X237318759Y-87568738D01*
X237256964Y-87536132D01*
X237222607Y-87475293D01*
X237220918Y-87466641D01*
X237212904Y-87416042D01*
X237149647Y-87221357D01*
X237149645Y-87221354D01*
X237149645Y-87221352D01*
X237107292Y-87138231D01*
X237056714Y-87038966D01*
X237013884Y-86980015D01*
X236936398Y-86873362D01*
X236791640Y-86728604D01*
X236626040Y-86608291D01*
X236626039Y-86608290D01*
X236626037Y-86608289D01*
X236569080Y-86579267D01*
X236443650Y-86515357D01*
X236248961Y-86452098D01*
X236074422Y-86424454D01*
X236046779Y-86420076D01*
X235842075Y-86420076D01*
X235817756Y-86423927D01*
X235639892Y-86452098D01*
X235445203Y-86515357D01*
X235262813Y-86608291D01*
X235097213Y-86728604D01*
X234952455Y-86873362D01*
X234832142Y-87038962D01*
X234739208Y-87221352D01*
X234675950Y-87416039D01*
X234667940Y-87466609D01*
X234638009Y-87529743D01*
X234578697Y-87566674D01*
X234508834Y-87565674D01*
X234450602Y-87527063D01*
X234445149Y-87520094D01*
X234417086Y-87481469D01*
X234417085Y-87481468D01*
X233594427Y-88304127D01*
X233594427Y-88297914D01*
X233567168Y-88196181D01*
X233514507Y-88104969D01*
X233440033Y-88030495D01*
X233348821Y-87977834D01*
X233247088Y-87950575D01*
X233240873Y-87950575D01*
X234063532Y-87127915D01*
X234063531Y-87127913D01*
X233980601Y-87067662D01*
X233770229Y-86960472D01*
X233545674Y-86887509D01*
X233545675Y-86887509D01*
X233312479Y-86850575D01*
X233076375Y-86850575D01*
X232843179Y-86887509D01*
X232618624Y-86960472D01*
X232408252Y-87067662D01*
X232237111Y-87192003D01*
X232171305Y-87215483D01*
X232103251Y-87199657D01*
X232054556Y-87149552D01*
X232043019Y-87102964D01*
X232040823Y-87103181D01*
X232040226Y-87097125D01*
X232040226Y-87097120D01*
X232011566Y-86953033D01*
X231955346Y-86817306D01*
X231955345Y-86817305D01*
X231955342Y-86817299D01*
X231873727Y-86695155D01*
X231873724Y-86695151D01*
X231769849Y-86591276D01*
X231769845Y-86591273D01*
X231647701Y-86509658D01*
X231647692Y-86509653D01*
X231511970Y-86453436D01*
X231511971Y-86453436D01*
X231511968Y-86453435D01*
X231511964Y-86453434D01*
X231511960Y-86453433D01*
X231367885Y-86424775D01*
X231367881Y-86424775D01*
X231220971Y-86424775D01*
X231220966Y-86424775D01*
X231076891Y-86453433D01*
X231076881Y-86453436D01*
X230941159Y-86509653D01*
X230941150Y-86509658D01*
X230819006Y-86591273D01*
X230819002Y-86591276D01*
X230715127Y-86695151D01*
X230715124Y-86695155D01*
X230633509Y-86817299D01*
X230633504Y-86817308D01*
X230577287Y-86953030D01*
X230577284Y-86953040D01*
X230548626Y-87097115D01*
X230548626Y-87244034D01*
X230577284Y-87388109D01*
X230577287Y-87388119D01*
X230633504Y-87523841D01*
X230633509Y-87523850D01*
X230715124Y-87645994D01*
X230715127Y-87645998D01*
X230819002Y-87749873D01*
X230819006Y-87749876D01*
X230941150Y-87831491D01*
X230941156Y-87831494D01*
X230941157Y-87831495D01*
X231076884Y-87887715D01*
X231196276Y-87911463D01*
X231220966Y-87916374D01*
X231220970Y-87916375D01*
X231220971Y-87916375D01*
X231367882Y-87916375D01*
X231367883Y-87916374D01*
X231511968Y-87887715D01*
X231561121Y-87867354D01*
X231630589Y-87859886D01*
X231693068Y-87891161D01*
X231728721Y-87951249D01*
X231731046Y-88001313D01*
X231694427Y-88232521D01*
X231694427Y-88468627D01*
X231731361Y-88701822D01*
X231804324Y-88926377D01*
X231911514Y-89136749D01*
X231971765Y-89219679D01*
X231971767Y-89219680D01*
X232794427Y-88397020D01*
X232794427Y-88403236D01*
X232821686Y-88504969D01*
X232874347Y-88596181D01*
X232948821Y-88670655D01*
X233040033Y-88723316D01*
X233141766Y-88750575D01*
X233147981Y-88750575D01*
X232325320Y-89573233D01*
X232408262Y-89633494D01*
X232412408Y-89636035D01*
X232411587Y-89637374D01*
X232457355Y-89680594D01*
X232474155Y-89748414D01*
X232451621Y-89814551D01*
X232423154Y-89843430D01*
X232347209Y-89898607D01*
X232202455Y-90043361D01*
X232082142Y-90208961D01*
X231989208Y-90391351D01*
X231925949Y-90586040D01*
X231893927Y-90788223D01*
X231893927Y-90992926D01*
X231925949Y-91195109D01*
X231989208Y-91389798D01*
X232082142Y-91572188D01*
X232202455Y-91737788D01*
X232347213Y-91882546D01*
X232512812Y-92002859D01*
X232512814Y-92002860D01*
X232512817Y-92002862D01*
X232676222Y-92086121D01*
X232727018Y-92134096D01*
X232743927Y-92196606D01*
X232743927Y-96547501D01*
X232724242Y-96614540D01*
X232707608Y-96635182D01*
X230316607Y-99026183D01*
X230255284Y-99059668D01*
X230185592Y-99054684D01*
X230129659Y-99012812D01*
X230105242Y-98947348D01*
X230104926Y-98938502D01*
X230104926Y-98845023D01*
X230082789Y-98705260D01*
X230076597Y-98666166D01*
X230026206Y-98511075D01*
X230020638Y-98493938D01*
X230020637Y-98493935D01*
X229983507Y-98421065D01*
X229938422Y-98332581D01*
X229924360Y-98313226D01*
X229831984Y-98186080D01*
X229831980Y-98186075D01*
X229703925Y-98058020D01*
X229703920Y-98058016D01*
X229557421Y-97951579D01*
X229472630Y-97908375D01*
X229421835Y-97860401D01*
X229404926Y-97797891D01*
X229404926Y-90501268D01*
X229404926Y-90501266D01*
X229374225Y-90386689D01*
X229374225Y-90386688D01*
X229314915Y-90283961D01*
X227366245Y-88335291D01*
X227332760Y-88273968D01*
X227329926Y-88247610D01*
X227329926Y-87367478D01*
X227329926Y-87367473D01*
X227319303Y-87279011D01*
X227263787Y-87138233D01*
X227219880Y-87080333D01*
X227172348Y-87017652D01*
X227051767Y-86926213D01*
X226983435Y-86899266D01*
X226928292Y-86856360D01*
X226905099Y-86790452D01*
X226904926Y-86783912D01*
X226904926Y-85001268D01*
X226904926Y-85001266D01*
X226874225Y-84886689D01*
X226874225Y-84886688D01*
X226814916Y-84783961D01*
X226780050Y-84749095D01*
X226772729Y-84737573D01*
X226766685Y-84716590D01*
X226756223Y-84697430D01*
X226756494Y-84681209D01*
X226753391Y-84670433D01*
X226756870Y-84658805D01*
X226757014Y-84650173D01*
X226755855Y-84650034D01*
X226758891Y-84624748D01*
X226767426Y-84553677D01*
X226767426Y-83567473D01*
X226759186Y-83498857D01*
X226770738Y-83429951D01*
X226817710Y-83378227D01*
X226882302Y-83360075D01*
X235240461Y-83360075D01*
X235307500Y-83379760D01*
X235328142Y-83396394D01*
X235805107Y-83873359D01*
X235838592Y-83934682D01*
X235841426Y-83961040D01*
X235841426Y-84340193D01*
X235851808Y-84426649D01*
X235851808Y-84426650D01*
X235906065Y-84564235D01*
X235995425Y-84682075D01*
X236068611Y-84737573D01*
X236113268Y-84771437D01*
X236250849Y-84825692D01*
X236308488Y-84832614D01*
X236337307Y-84836075D01*
X236337308Y-84836075D01*
X236921545Y-84836075D01*
X236943158Y-84833479D01*
X237008003Y-84825692D01*
X237145584Y-84771437D01*
X237263426Y-84682075D01*
X237352788Y-84564233D01*
X237407043Y-84426652D01*
X237417426Y-84340193D01*
X237417426Y-83780957D01*
X237407043Y-83694498D01*
X237352788Y-83556917D01*
X237323210Y-83517912D01*
X237263426Y-83439074D01*
X237145586Y-83349714D01*
X237145584Y-83349713D01*
X237008003Y-83295458D01*
X237008002Y-83295457D01*
X237008000Y-83295457D01*
X236921545Y-83285075D01*
X236921544Y-83285075D01*
X236542392Y-83285075D01*
X236475353Y-83265390D01*
X236454711Y-83248756D01*
X235755042Y-82549088D01*
X235755040Y-82549086D01*
X235703676Y-82519431D01*
X235652314Y-82489776D01*
X235640206Y-82486532D01*
X235628099Y-82483288D01*
X235628096Y-82483287D01*
X235565042Y-82466392D01*
X235537735Y-82459075D01*
X235537734Y-82459075D01*
X232527655Y-82459075D01*
X232460616Y-82439390D01*
X232414861Y-82386586D01*
X232404917Y-82317428D01*
X232420267Y-82273076D01*
X232466392Y-82193186D01*
X232500500Y-82065892D01*
X232500500Y-75878711D01*
X241649500Y-75878711D01*
X241649500Y-76121288D01*
X241681161Y-76361785D01*
X241743947Y-76596104D01*
X241804456Y-76742185D01*
X241836776Y-76820212D01*
X241958064Y-77030289D01*
X241958066Y-77030292D01*
X241958067Y-77030293D01*
X242105733Y-77222736D01*
X242105739Y-77222743D01*
X242277256Y-77394260D01*
X242277263Y-77394266D01*
X242390321Y-77481018D01*
X242469711Y-77541936D01*
X242679788Y-77663224D01*
X242875269Y-77744195D01*
X242897398Y-77753361D01*
X242903900Y-77756054D01*
X243138211Y-77818838D01*
X243318586Y-77842584D01*
X243378711Y-77850500D01*
X243378712Y-77850500D01*
X243621289Y-77850500D01*
X243669388Y-77844167D01*
X243861789Y-77818838D01*
X244096100Y-77756054D01*
X244320212Y-77663224D01*
X244530289Y-77541936D01*
X244722738Y-77394265D01*
X244894265Y-77222738D01*
X245041936Y-77030289D01*
X245163224Y-76820212D01*
X245256054Y-76596100D01*
X245318838Y-76361789D01*
X245350500Y-76121288D01*
X245350500Y-75878712D01*
X245318838Y-75638211D01*
X245256054Y-75403900D01*
X245163224Y-75179788D01*
X245041936Y-74969711D01*
X244894265Y-74777262D01*
X244894260Y-74777256D01*
X244722743Y-74605739D01*
X244722736Y-74605733D01*
X244530293Y-74458067D01*
X244530292Y-74458066D01*
X244530289Y-74458064D01*
X244320212Y-74336776D01*
X244320205Y-74336773D01*
X244096104Y-74243947D01*
X243861785Y-74181161D01*
X243621289Y-74149500D01*
X243621288Y-74149500D01*
X243378712Y-74149500D01*
X243378711Y-74149500D01*
X243138214Y-74181161D01*
X242903895Y-74243947D01*
X242679794Y-74336773D01*
X242679785Y-74336777D01*
X242469706Y-74458067D01*
X242277263Y-74605733D01*
X242277256Y-74605739D01*
X242105739Y-74777256D01*
X242105733Y-74777263D01*
X241958067Y-74969706D01*
X241836777Y-75179785D01*
X241836773Y-75179794D01*
X241743947Y-75403895D01*
X241681161Y-75638214D01*
X241649500Y-75878711D01*
X232500500Y-75878711D01*
X232500500Y-73124500D01*
X232520185Y-73057461D01*
X232572989Y-73011706D01*
X232624500Y-73000500D01*
X246375500Y-73000500D01*
X246442539Y-73020185D01*
G37*
%TD.AperFunction*%
%TA.AperFunction,Conductor*%
G36*
X221513500Y-97260760D02*
G01*
X221534142Y-97277394D01*
X221685693Y-97428945D01*
X221719178Y-97490268D01*
X221714194Y-97559960D01*
X221704426Y-97575159D01*
X221704426Y-98656429D01*
X221637769Y-98617945D01*
X221516961Y-98585575D01*
X221391891Y-98585575D01*
X221271083Y-98617945D01*
X221204426Y-98656429D01*
X221204426Y-97585575D01*
X220804454Y-97585575D01*
X220804438Y-97585576D01*
X220701728Y-97596069D01*
X220535306Y-97651216D01*
X220535301Y-97651218D01*
X220386080Y-97743259D01*
X220262110Y-97867229D01*
X220170069Y-98016450D01*
X220170067Y-98016455D01*
X220114920Y-98182877D01*
X220114919Y-98182884D01*
X220104426Y-98285588D01*
X220104426Y-98810575D01*
X221050280Y-98810575D01*
X221011796Y-98877232D01*
X220979426Y-98998040D01*
X220979426Y-99123110D01*
X221011796Y-99243918D01*
X221050280Y-99310575D01*
X220104427Y-99310575D01*
X220104427Y-99835561D01*
X220110957Y-99899473D01*
X220108155Y-99914546D01*
X220110337Y-99929722D01*
X220101900Y-99948196D01*
X220098188Y-99968166D01*
X220087680Y-99979332D01*
X220081312Y-99993278D01*
X220064225Y-100004258D01*
X220050307Y-100019050D01*
X220034555Y-100023326D01*
X220022534Y-100031052D01*
X219987599Y-100036075D01*
X219943390Y-100036075D01*
X219876351Y-100016390D01*
X219855709Y-99999756D01*
X217556041Y-97700088D01*
X217556039Y-97700086D01*
X217540013Y-97690833D01*
X217515551Y-97672328D01*
X217508272Y-97665247D01*
X217451576Y-97588425D01*
X217359313Y-97520332D01*
X217353272Y-97514455D01*
X217340084Y-97491075D01*
X217323854Y-97469698D01*
X217323180Y-97461105D01*
X217318946Y-97453598D01*
X217320492Y-97426801D01*
X217318395Y-97400042D01*
X217322474Y-97392448D01*
X217322971Y-97383844D01*
X217338757Y-97362139D01*
X217351462Y-97338492D01*
X217363620Y-97327957D01*
X217364069Y-97327340D01*
X217364546Y-97327154D01*
X217366096Y-97325811D01*
X217448082Y-97265303D01*
X217513710Y-97241334D01*
X217521714Y-97241075D01*
X221446461Y-97241075D01*
X221513500Y-97260760D01*
G37*
%TD.AperFunction*%
%TA.AperFunction,Conductor*%
G36*
X211667085Y-91754880D02*
G01*
X211695148Y-91716256D01*
X211750478Y-91673590D01*
X211820091Y-91667611D01*
X211881887Y-91700216D01*
X211916244Y-91761055D01*
X211917940Y-91769741D01*
X211925950Y-91820311D01*
X211989208Y-92014998D01*
X212082139Y-92197384D01*
X212170781Y-92319390D01*
X212194260Y-92385197D01*
X212178434Y-92453251D01*
X212128328Y-92501945D01*
X212070462Y-92516275D01*
X211063252Y-92516275D01*
X210996213Y-92496590D01*
X210950458Y-92443786D01*
X210940514Y-92374628D01*
X210969539Y-92311072D01*
X211015809Y-92277710D01*
X211020229Y-92275879D01*
X211230591Y-92168694D01*
X211230597Y-92168690D01*
X211313532Y-92108434D01*
X211313533Y-92108434D01*
X210490874Y-91285776D01*
X210497089Y-91285776D01*
X210598822Y-91258517D01*
X210690034Y-91205856D01*
X210764508Y-91131382D01*
X210817169Y-91040170D01*
X210844428Y-90938437D01*
X210844428Y-90932222D01*
X211667085Y-91754880D01*
G37*
%TD.AperFunction*%
%TA.AperFunction,Conductor*%
G36*
X215544427Y-90938437D02*
G01*
X215571686Y-91040170D01*
X215624347Y-91131382D01*
X215698821Y-91205856D01*
X215790033Y-91258517D01*
X215891766Y-91285776D01*
X215897979Y-91285776D01*
X215075320Y-92108434D01*
X215158255Y-92168690D01*
X215368625Y-92275879D01*
X215373046Y-92277710D01*
X215427453Y-92321546D01*
X215449524Y-92387838D01*
X215432250Y-92455539D01*
X215381117Y-92503154D01*
X215325603Y-92516275D01*
X214318392Y-92516275D01*
X214251353Y-92496590D01*
X214205598Y-92443786D01*
X214195654Y-92374628D01*
X214218073Y-92319390D01*
X214244279Y-92283320D01*
X214306714Y-92197385D01*
X214399647Y-92014994D01*
X214462904Y-91820309D01*
X214470913Y-91769739D01*
X214500840Y-91706610D01*
X214560151Y-91669678D01*
X214630013Y-91670674D01*
X214688246Y-91709283D01*
X214693703Y-91716256D01*
X214721765Y-91754880D01*
X214721767Y-91754881D01*
X215544427Y-90932221D01*
X215544427Y-90938437D01*
G37*
%TD.AperFunction*%
%TA.AperFunction,Conductor*%
G36*
X238294426Y-88403236D02*
G01*
X238321685Y-88504969D01*
X238374346Y-88596181D01*
X238448820Y-88670655D01*
X238540032Y-88723316D01*
X238641765Y-88750575D01*
X238647978Y-88750575D01*
X237825319Y-89573233D01*
X237908261Y-89633494D01*
X237912407Y-89636035D01*
X237911586Y-89637374D01*
X237957354Y-89680594D01*
X237974154Y-89748414D01*
X237951620Y-89814551D01*
X237923153Y-89843430D01*
X237847208Y-89898607D01*
X237702454Y-90043361D01*
X237582141Y-90208961D01*
X237489207Y-90391351D01*
X237425948Y-90586040D01*
X237393926Y-90788223D01*
X237393926Y-90990264D01*
X237374241Y-91057303D01*
X237321437Y-91103058D01*
X237252279Y-91113002D01*
X237188723Y-91083977D01*
X237151996Y-91028584D01*
X237149647Y-91021355D01*
X237056714Y-90838964D01*
X237048983Y-90828323D01*
X236936398Y-90673360D01*
X236791640Y-90528602D01*
X236626040Y-90408289D01*
X236626039Y-90408288D01*
X236626037Y-90408287D01*
X236545945Y-90367478D01*
X236443650Y-90315355D01*
X236248961Y-90252096D01*
X236074422Y-90224452D01*
X236046779Y-90220074D01*
X235842075Y-90220074D01*
X235817756Y-90223925D01*
X235639892Y-90252096D01*
X235445203Y-90315355D01*
X235262813Y-90408289D01*
X235097213Y-90528602D01*
X234952455Y-90673360D01*
X234832142Y-90838960D01*
X234739208Y-91021351D01*
X234739207Y-91021355D01*
X234736859Y-91028583D01*
X234736858Y-91028586D01*
X234697419Y-91086261D01*
X234633061Y-91113459D01*
X234564214Y-91101544D01*
X234512739Y-91054299D01*
X234494927Y-90990267D01*
X234494927Y-90788223D01*
X234462904Y-90586040D01*
X234405148Y-90408287D01*
X234399647Y-90391356D01*
X234399645Y-90391353D01*
X234399645Y-90391351D01*
X234346205Y-90286471D01*
X234306714Y-90208965D01*
X234255325Y-90138233D01*
X234186398Y-90043361D01*
X234041644Y-89898607D01*
X234041639Y-89898603D01*
X233965700Y-89843430D01*
X233923034Y-89788100D01*
X233917055Y-89718487D01*
X233949661Y-89656692D01*
X233976819Y-89636666D01*
X233976436Y-89636040D01*
X233980596Y-89633489D01*
X234063531Y-89573233D01*
X234063532Y-89573233D01*
X233240873Y-88750575D01*
X233247088Y-88750575D01*
X233348821Y-88723316D01*
X233440033Y-88670655D01*
X233514507Y-88596181D01*
X233567168Y-88504969D01*
X233594427Y-88403236D01*
X233594427Y-88397022D01*
X234417085Y-89219680D01*
X234417085Y-89219679D01*
X234477341Y-89136744D01*
X234477345Y-89136738D01*
X234584529Y-88926377D01*
X234657492Y-88701822D01*
X234680884Y-88554134D01*
X234710813Y-88491000D01*
X234770124Y-88454068D01*
X234839987Y-88455066D01*
X234898220Y-88493676D01*
X234903676Y-88500647D01*
X234952461Y-88567795D01*
X235097213Y-88712547D01*
X235251617Y-88824726D01*
X235262817Y-88832863D01*
X235373783Y-88889403D01*
X235445203Y-88925794D01*
X235445205Y-88925794D01*
X235445208Y-88925796D01*
X235521935Y-88950726D01*
X235639892Y-88989053D01*
X235740984Y-89005064D01*
X235842075Y-89021076D01*
X235842076Y-89021076D01*
X236046778Y-89021076D01*
X236046779Y-89021076D01*
X236248961Y-88989053D01*
X236443646Y-88925796D01*
X236626037Y-88832863D01*
X236735028Y-88753677D01*
X236791640Y-88712547D01*
X236791642Y-88712544D01*
X236791646Y-88712542D01*
X236936393Y-88567795D01*
X236946318Y-88554135D01*
X236985177Y-88500649D01*
X237040507Y-88457982D01*
X237110120Y-88452002D01*
X237171915Y-88484608D01*
X237206273Y-88545446D01*
X237207969Y-88554135D01*
X237231360Y-88701822D01*
X237304323Y-88926377D01*
X237411513Y-89136749D01*
X237471764Y-89219679D01*
X237471766Y-89219680D01*
X238294426Y-88397020D01*
X238294426Y-88403236D01*
G37*
%TD.AperFunction*%
%TA.AperFunction,Conductor*%
G36*
X214574637Y-88134805D02*
G01*
X214626113Y-88182048D01*
X214643927Y-88246083D01*
X214643927Y-88448127D01*
X214675949Y-88650310D01*
X214739208Y-88844999D01*
X214832142Y-89027389D01*
X214952455Y-89192989D01*
X214952461Y-89192995D01*
X215097208Y-89337742D01*
X215173154Y-89392920D01*
X215215820Y-89448249D01*
X215221799Y-89517862D01*
X215189194Y-89579658D01*
X215162032Y-89599691D01*
X215162414Y-89600313D01*
X215158262Y-89602857D01*
X215075321Y-89663116D01*
X215897981Y-90485776D01*
X215891766Y-90485776D01*
X215790033Y-90513035D01*
X215698821Y-90565696D01*
X215624347Y-90640170D01*
X215571686Y-90731382D01*
X215544427Y-90833115D01*
X215544427Y-90839329D01*
X214721767Y-90016670D01*
X214661511Y-90099606D01*
X214554324Y-90309973D01*
X214481361Y-90534527D01*
X214457969Y-90682217D01*
X214428039Y-90745351D01*
X214368728Y-90782282D01*
X214298865Y-90781284D01*
X214240633Y-90742674D01*
X214235177Y-90735702D01*
X214186396Y-90668559D01*
X214041640Y-90523803D01*
X213876040Y-90403490D01*
X213876039Y-90403489D01*
X213876037Y-90403488D01*
X213805354Y-90367473D01*
X213693650Y-90310556D01*
X213498961Y-90247297D01*
X213324422Y-90219653D01*
X213296779Y-90215275D01*
X213092075Y-90215275D01*
X213067756Y-90219126D01*
X212889892Y-90247297D01*
X212695203Y-90310556D01*
X212512813Y-90403490D01*
X212347213Y-90523803D01*
X212202459Y-90668557D01*
X212153675Y-90735703D01*
X212098345Y-90778368D01*
X212028731Y-90784347D01*
X211966936Y-90751741D01*
X211932579Y-90690902D01*
X211930884Y-90682214D01*
X211907494Y-90534529D01*
X211907493Y-90534528D01*
X211834530Y-90309973D01*
X211727342Y-90099604D01*
X211667086Y-90016670D01*
X211667086Y-90016669D01*
X210844428Y-90839328D01*
X210844428Y-90833115D01*
X210817169Y-90731382D01*
X210764508Y-90640170D01*
X210690034Y-90565696D01*
X210598822Y-90513035D01*
X210497089Y-90485776D01*
X210490875Y-90485776D01*
X211313533Y-89663116D01*
X211313532Y-89663114D01*
X211230598Y-89602860D01*
X211226447Y-89600316D01*
X211227267Y-89598976D01*
X211181499Y-89555756D01*
X211164698Y-89487936D01*
X211187231Y-89421800D01*
X211215699Y-89392920D01*
X211291647Y-89337742D01*
X211436394Y-89192995D01*
X211436396Y-89192991D01*
X211436399Y-89192989D01*
X211489160Y-89120366D01*
X211556715Y-89027386D01*
X211649648Y-88844995D01*
X211712905Y-88650310D01*
X211744928Y-88448128D01*
X211744928Y-88246086D01*
X211764613Y-88179047D01*
X211817417Y-88133292D01*
X211886575Y-88123348D01*
X211950131Y-88152373D01*
X211986858Y-88207767D01*
X211989207Y-88214996D01*
X212050500Y-88335291D01*
X212082142Y-88397390D01*
X212202455Y-88562990D01*
X212347213Y-88707748D01*
X212502176Y-88820333D01*
X212512817Y-88828064D01*
X212629034Y-88887280D01*
X212695203Y-88920995D01*
X212695205Y-88920995D01*
X212695208Y-88920997D01*
X212799564Y-88954904D01*
X212889892Y-88984254D01*
X212920192Y-88989053D01*
X213092075Y-89016277D01*
X213092076Y-89016277D01*
X213296778Y-89016277D01*
X213296779Y-89016277D01*
X213498961Y-88984254D01*
X213693646Y-88920997D01*
X213876037Y-88828064D01*
X213982692Y-88750575D01*
X214041640Y-88707748D01*
X214041642Y-88707745D01*
X214041646Y-88707743D01*
X214186393Y-88562996D01*
X214186395Y-88562992D01*
X214186398Y-88562990D01*
X214243345Y-88484608D01*
X214306714Y-88397387D01*
X214399647Y-88214996D01*
X214401997Y-88207762D01*
X214441432Y-88150090D01*
X214505790Y-88122891D01*
X214574637Y-88134805D01*
G37*
%TD.AperFunction*%
%TD*%
M02*
