%TF.GenerationSoftware,KiCad,Pcbnew,9.0.0*%
%TF.CreationDate,2025-04-22T12:40:58+02:00*%
%TF.ProjectId,carte-capteur-ir,63617274-652d-4636-9170-746575722d69,rev?*%
%TF.SameCoordinates,Original*%
%TF.FileFunction,Legend,Top*%
%TF.FilePolarity,Positive*%
%FSLAX46Y46*%
G04 Gerber Fmt 4.6, Leading zero omitted, Abs format (unit mm)*
G04 Created by KiCad (PCBNEW 9.0.0) date 2025-04-22 12:40:58*
%MOMM*%
%LPD*%
G01*
G04 APERTURE LIST*
%ADD10C,0.150000*%
%ADD11C,0.120000*%
%ADD12C,0.508000*%
G04 APERTURE END LIST*
D10*
X224875259Y-93365394D02*
X224541926Y-92889203D01*
X224303831Y-93365394D02*
X224303831Y-92365394D01*
X224303831Y-92365394D02*
X224684783Y-92365394D01*
X224684783Y-92365394D02*
X224780021Y-92413013D01*
X224780021Y-92413013D02*
X224827640Y-92460632D01*
X224827640Y-92460632D02*
X224875259Y-92555870D01*
X224875259Y-92555870D02*
X224875259Y-92698727D01*
X224875259Y-92698727D02*
X224827640Y-92793965D01*
X224827640Y-92793965D02*
X224780021Y-92841584D01*
X224780021Y-92841584D02*
X224684783Y-92889203D01*
X224684783Y-92889203D02*
X224303831Y-92889203D01*
X225827640Y-93365394D02*
X225256212Y-93365394D01*
X225541926Y-93365394D02*
X225541926Y-92365394D01*
X225541926Y-92365394D02*
X225446688Y-92508251D01*
X225446688Y-92508251D02*
X225351450Y-92603489D01*
X225351450Y-92603489D02*
X225256212Y-92651108D01*
X210839245Y-95227241D02*
X210363054Y-95560574D01*
X210839245Y-95798669D02*
X209839245Y-95798669D01*
X209839245Y-95798669D02*
X209839245Y-95417717D01*
X209839245Y-95417717D02*
X209886864Y-95322479D01*
X209886864Y-95322479D02*
X209934483Y-95274860D01*
X209934483Y-95274860D02*
X210029721Y-95227241D01*
X210029721Y-95227241D02*
X210172578Y-95227241D01*
X210172578Y-95227241D02*
X210267816Y-95274860D01*
X210267816Y-95274860D02*
X210315435Y-95322479D01*
X210315435Y-95322479D02*
X210363054Y-95417717D01*
X210363054Y-95417717D02*
X210363054Y-95798669D01*
X209839245Y-94893907D02*
X209839245Y-94274860D01*
X209839245Y-94274860D02*
X210220197Y-94608193D01*
X210220197Y-94608193D02*
X210220197Y-94465336D01*
X210220197Y-94465336D02*
X210267816Y-94370098D01*
X210267816Y-94370098D02*
X210315435Y-94322479D01*
X210315435Y-94322479D02*
X210410673Y-94274860D01*
X210410673Y-94274860D02*
X210648768Y-94274860D01*
X210648768Y-94274860D02*
X210744006Y-94322479D01*
X210744006Y-94322479D02*
X210791626Y-94370098D01*
X210791626Y-94370098D02*
X210839245Y-94465336D01*
X210839245Y-94465336D02*
X210839245Y-94751050D01*
X210839245Y-94751050D02*
X210791626Y-94846288D01*
X210791626Y-94846288D02*
X210744006Y-94893907D01*
X205479245Y-91227241D02*
X205003054Y-91560574D01*
X205479245Y-91798669D02*
X204479245Y-91798669D01*
X204479245Y-91798669D02*
X204479245Y-91417717D01*
X204479245Y-91417717D02*
X204526864Y-91322479D01*
X204526864Y-91322479D02*
X204574483Y-91274860D01*
X204574483Y-91274860D02*
X204669721Y-91227241D01*
X204669721Y-91227241D02*
X204812578Y-91227241D01*
X204812578Y-91227241D02*
X204907816Y-91274860D01*
X204907816Y-91274860D02*
X204955435Y-91322479D01*
X204955435Y-91322479D02*
X205003054Y-91417717D01*
X205003054Y-91417717D02*
X205003054Y-91798669D01*
X204812578Y-90370098D02*
X205479245Y-90370098D01*
X204431626Y-90608193D02*
X205145911Y-90846288D01*
X205145911Y-90846288D02*
X205145911Y-90227241D01*
X213067521Y-94750394D02*
X213067521Y-95559917D01*
X213067521Y-95559917D02*
X213115140Y-95655155D01*
X213115140Y-95655155D02*
X213162759Y-95702775D01*
X213162759Y-95702775D02*
X213257997Y-95750394D01*
X213257997Y-95750394D02*
X213448473Y-95750394D01*
X213448473Y-95750394D02*
X213543711Y-95702775D01*
X213543711Y-95702775D02*
X213591330Y-95655155D01*
X213591330Y-95655155D02*
X213638949Y-95559917D01*
X213638949Y-95559917D02*
X213638949Y-94750394D01*
X214638949Y-95750394D02*
X214067521Y-95750394D01*
X214353235Y-95750394D02*
X214353235Y-94750394D01*
X214353235Y-94750394D02*
X214257997Y-94893251D01*
X214257997Y-94893251D02*
X214162759Y-94988489D01*
X214162759Y-94988489D02*
X214067521Y-95036108D01*
X224812759Y-86570155D02*
X224765140Y-86617775D01*
X224765140Y-86617775D02*
X224622283Y-86665394D01*
X224622283Y-86665394D02*
X224527045Y-86665394D01*
X224527045Y-86665394D02*
X224384188Y-86617775D01*
X224384188Y-86617775D02*
X224288950Y-86522536D01*
X224288950Y-86522536D02*
X224241331Y-86427298D01*
X224241331Y-86427298D02*
X224193712Y-86236822D01*
X224193712Y-86236822D02*
X224193712Y-86093965D01*
X224193712Y-86093965D02*
X224241331Y-85903489D01*
X224241331Y-85903489D02*
X224288950Y-85808251D01*
X224288950Y-85808251D02*
X224384188Y-85713013D01*
X224384188Y-85713013D02*
X224527045Y-85665394D01*
X224527045Y-85665394D02*
X224622283Y-85665394D01*
X224622283Y-85665394D02*
X224765140Y-85713013D01*
X224765140Y-85713013D02*
X224812759Y-85760632D01*
X225765140Y-86665394D02*
X225193712Y-86665394D01*
X225479426Y-86665394D02*
X225479426Y-85665394D01*
X225479426Y-85665394D02*
X225384188Y-85808251D01*
X225384188Y-85808251D02*
X225288950Y-85903489D01*
X225288950Y-85903489D02*
X225193712Y-85951108D01*
X207287759Y-82585394D02*
X206954426Y-82109203D01*
X206716331Y-82585394D02*
X206716331Y-81585394D01*
X206716331Y-81585394D02*
X207097283Y-81585394D01*
X207097283Y-81585394D02*
X207192521Y-81633013D01*
X207192521Y-81633013D02*
X207240140Y-81680632D01*
X207240140Y-81680632D02*
X207287759Y-81775870D01*
X207287759Y-81775870D02*
X207287759Y-81918727D01*
X207287759Y-81918727D02*
X207240140Y-82013965D01*
X207240140Y-82013965D02*
X207192521Y-82061584D01*
X207192521Y-82061584D02*
X207097283Y-82109203D01*
X207097283Y-82109203D02*
X206716331Y-82109203D01*
X208144902Y-81585394D02*
X207954426Y-81585394D01*
X207954426Y-81585394D02*
X207859188Y-81633013D01*
X207859188Y-81633013D02*
X207811569Y-81680632D01*
X207811569Y-81680632D02*
X207716331Y-81823489D01*
X207716331Y-81823489D02*
X207668712Y-82013965D01*
X207668712Y-82013965D02*
X207668712Y-82394917D01*
X207668712Y-82394917D02*
X207716331Y-82490155D01*
X207716331Y-82490155D02*
X207763950Y-82537775D01*
X207763950Y-82537775D02*
X207859188Y-82585394D01*
X207859188Y-82585394D02*
X208049664Y-82585394D01*
X208049664Y-82585394D02*
X208144902Y-82537775D01*
X208144902Y-82537775D02*
X208192521Y-82490155D01*
X208192521Y-82490155D02*
X208240140Y-82394917D01*
X208240140Y-82394917D02*
X208240140Y-82156822D01*
X208240140Y-82156822D02*
X208192521Y-82061584D01*
X208192521Y-82061584D02*
X208144902Y-82013965D01*
X208144902Y-82013965D02*
X208049664Y-81966346D01*
X208049664Y-81966346D02*
X207859188Y-81966346D01*
X207859188Y-81966346D02*
X207763950Y-82013965D01*
X207763950Y-82013965D02*
X207716331Y-82061584D01*
X207716331Y-82061584D02*
X207668712Y-82156822D01*
X224875259Y-82865394D02*
X224541926Y-82389203D01*
X224303831Y-82865394D02*
X224303831Y-81865394D01*
X224303831Y-81865394D02*
X224684783Y-81865394D01*
X224684783Y-81865394D02*
X224780021Y-81913013D01*
X224780021Y-81913013D02*
X224827640Y-81960632D01*
X224827640Y-81960632D02*
X224875259Y-82055870D01*
X224875259Y-82055870D02*
X224875259Y-82198727D01*
X224875259Y-82198727D02*
X224827640Y-82293965D01*
X224827640Y-82293965D02*
X224780021Y-82341584D01*
X224780021Y-82341584D02*
X224684783Y-82389203D01*
X224684783Y-82389203D02*
X224303831Y-82389203D01*
X225256212Y-81960632D02*
X225303831Y-81913013D01*
X225303831Y-81913013D02*
X225399069Y-81865394D01*
X225399069Y-81865394D02*
X225637164Y-81865394D01*
X225637164Y-81865394D02*
X225732402Y-81913013D01*
X225732402Y-81913013D02*
X225780021Y-81960632D01*
X225780021Y-81960632D02*
X225827640Y-82055870D01*
X225827640Y-82055870D02*
X225827640Y-82151108D01*
X225827640Y-82151108D02*
X225780021Y-82293965D01*
X225780021Y-82293965D02*
X225208593Y-82865394D01*
X225208593Y-82865394D02*
X225827640Y-82865394D01*
X205375259Y-93585394D02*
X205041926Y-93109203D01*
X204803831Y-93585394D02*
X204803831Y-92585394D01*
X204803831Y-92585394D02*
X205184783Y-92585394D01*
X205184783Y-92585394D02*
X205280021Y-92633013D01*
X205280021Y-92633013D02*
X205327640Y-92680632D01*
X205327640Y-92680632D02*
X205375259Y-92775870D01*
X205375259Y-92775870D02*
X205375259Y-92918727D01*
X205375259Y-92918727D02*
X205327640Y-93013965D01*
X205327640Y-93013965D02*
X205280021Y-93061584D01*
X205280021Y-93061584D02*
X205184783Y-93109203D01*
X205184783Y-93109203D02*
X204803831Y-93109203D01*
X205946688Y-93013965D02*
X205851450Y-92966346D01*
X205851450Y-92966346D02*
X205803831Y-92918727D01*
X205803831Y-92918727D02*
X205756212Y-92823489D01*
X205756212Y-92823489D02*
X205756212Y-92775870D01*
X205756212Y-92775870D02*
X205803831Y-92680632D01*
X205803831Y-92680632D02*
X205851450Y-92633013D01*
X205851450Y-92633013D02*
X205946688Y-92585394D01*
X205946688Y-92585394D02*
X206137164Y-92585394D01*
X206137164Y-92585394D02*
X206232402Y-92633013D01*
X206232402Y-92633013D02*
X206280021Y-92680632D01*
X206280021Y-92680632D02*
X206327640Y-92775870D01*
X206327640Y-92775870D02*
X206327640Y-92823489D01*
X206327640Y-92823489D02*
X206280021Y-92918727D01*
X206280021Y-92918727D02*
X206232402Y-92966346D01*
X206232402Y-92966346D02*
X206137164Y-93013965D01*
X206137164Y-93013965D02*
X205946688Y-93013965D01*
X205946688Y-93013965D02*
X205851450Y-93061584D01*
X205851450Y-93061584D02*
X205803831Y-93109203D01*
X205803831Y-93109203D02*
X205756212Y-93204441D01*
X205756212Y-93204441D02*
X205756212Y-93394917D01*
X205756212Y-93394917D02*
X205803831Y-93490155D01*
X205803831Y-93490155D02*
X205851450Y-93537775D01*
X205851450Y-93537775D02*
X205946688Y-93585394D01*
X205946688Y-93585394D02*
X206137164Y-93585394D01*
X206137164Y-93585394D02*
X206232402Y-93537775D01*
X206232402Y-93537775D02*
X206280021Y-93490155D01*
X206280021Y-93490155D02*
X206327640Y-93394917D01*
X206327640Y-93394917D02*
X206327640Y-93204441D01*
X206327640Y-93204441D02*
X206280021Y-93109203D01*
X206280021Y-93109203D02*
X206232402Y-93061584D01*
X206232402Y-93061584D02*
X206137164Y-93013965D01*
X224812759Y-93270155D02*
X224765140Y-93317775D01*
X224765140Y-93317775D02*
X224622283Y-93365394D01*
X224622283Y-93365394D02*
X224527045Y-93365394D01*
X224527045Y-93365394D02*
X224384188Y-93317775D01*
X224384188Y-93317775D02*
X224288950Y-93222536D01*
X224288950Y-93222536D02*
X224241331Y-93127298D01*
X224241331Y-93127298D02*
X224193712Y-92936822D01*
X224193712Y-92936822D02*
X224193712Y-92793965D01*
X224193712Y-92793965D02*
X224241331Y-92603489D01*
X224241331Y-92603489D02*
X224288950Y-92508251D01*
X224288950Y-92508251D02*
X224384188Y-92413013D01*
X224384188Y-92413013D02*
X224527045Y-92365394D01*
X224527045Y-92365394D02*
X224622283Y-92365394D01*
X224622283Y-92365394D02*
X224765140Y-92413013D01*
X224765140Y-92413013D02*
X224812759Y-92460632D01*
X225193712Y-92460632D02*
X225241331Y-92413013D01*
X225241331Y-92413013D02*
X225336569Y-92365394D01*
X225336569Y-92365394D02*
X225574664Y-92365394D01*
X225574664Y-92365394D02*
X225669902Y-92413013D01*
X225669902Y-92413013D02*
X225717521Y-92460632D01*
X225717521Y-92460632D02*
X225765140Y-92555870D01*
X225765140Y-92555870D02*
X225765140Y-92651108D01*
X225765140Y-92651108D02*
X225717521Y-92793965D01*
X225717521Y-92793965D02*
X225146093Y-93365394D01*
X225146093Y-93365394D02*
X225765140Y-93365394D01*
X237375259Y-83085394D02*
X237041926Y-82609203D01*
X236803831Y-83085394D02*
X236803831Y-82085394D01*
X236803831Y-82085394D02*
X237184783Y-82085394D01*
X237184783Y-82085394D02*
X237280021Y-82133013D01*
X237280021Y-82133013D02*
X237327640Y-82180632D01*
X237327640Y-82180632D02*
X237375259Y-82275870D01*
X237375259Y-82275870D02*
X237375259Y-82418727D01*
X237375259Y-82418727D02*
X237327640Y-82513965D01*
X237327640Y-82513965D02*
X237280021Y-82561584D01*
X237280021Y-82561584D02*
X237184783Y-82609203D01*
X237184783Y-82609203D02*
X236803831Y-82609203D01*
X238280021Y-82085394D02*
X237803831Y-82085394D01*
X237803831Y-82085394D02*
X237756212Y-82561584D01*
X237756212Y-82561584D02*
X237803831Y-82513965D01*
X237803831Y-82513965D02*
X237899069Y-82466346D01*
X237899069Y-82466346D02*
X238137164Y-82466346D01*
X238137164Y-82466346D02*
X238232402Y-82513965D01*
X238232402Y-82513965D02*
X238280021Y-82561584D01*
X238280021Y-82561584D02*
X238327640Y-82656822D01*
X238327640Y-82656822D02*
X238327640Y-82894917D01*
X238327640Y-82894917D02*
X238280021Y-82990155D01*
X238280021Y-82990155D02*
X238232402Y-83037775D01*
X238232402Y-83037775D02*
X238137164Y-83085394D01*
X238137164Y-83085394D02*
X237899069Y-83085394D01*
X237899069Y-83085394D02*
X237803831Y-83037775D01*
X237803831Y-83037775D02*
X237756212Y-82990155D01*
X224871092Y-94965394D02*
X224871092Y-95679679D01*
X224871092Y-95679679D02*
X224823473Y-95822536D01*
X224823473Y-95822536D02*
X224728235Y-95917775D01*
X224728235Y-95917775D02*
X224585378Y-95965394D01*
X224585378Y-95965394D02*
X224490140Y-95965394D01*
X225871092Y-95965394D02*
X225299664Y-95965394D01*
X225585378Y-95965394D02*
X225585378Y-94965394D01*
X225585378Y-94965394D02*
X225490140Y-95108251D01*
X225490140Y-95108251D02*
X225394902Y-95203489D01*
X225394902Y-95203489D02*
X225299664Y-95251108D01*
X212787759Y-83605394D02*
X212454426Y-83129203D01*
X212216331Y-83605394D02*
X212216331Y-82605394D01*
X212216331Y-82605394D02*
X212597283Y-82605394D01*
X212597283Y-82605394D02*
X212692521Y-82653013D01*
X212692521Y-82653013D02*
X212740140Y-82700632D01*
X212740140Y-82700632D02*
X212787759Y-82795870D01*
X212787759Y-82795870D02*
X212787759Y-82938727D01*
X212787759Y-82938727D02*
X212740140Y-83033965D01*
X212740140Y-83033965D02*
X212692521Y-83081584D01*
X212692521Y-83081584D02*
X212597283Y-83129203D01*
X212597283Y-83129203D02*
X212216331Y-83129203D01*
X213263950Y-83605394D02*
X213454426Y-83605394D01*
X213454426Y-83605394D02*
X213549664Y-83557775D01*
X213549664Y-83557775D02*
X213597283Y-83510155D01*
X213597283Y-83510155D02*
X213692521Y-83367298D01*
X213692521Y-83367298D02*
X213740140Y-83176822D01*
X213740140Y-83176822D02*
X213740140Y-82795870D01*
X213740140Y-82795870D02*
X213692521Y-82700632D01*
X213692521Y-82700632D02*
X213644902Y-82653013D01*
X213644902Y-82653013D02*
X213549664Y-82605394D01*
X213549664Y-82605394D02*
X213359188Y-82605394D01*
X213359188Y-82605394D02*
X213263950Y-82653013D01*
X213263950Y-82653013D02*
X213216331Y-82700632D01*
X213216331Y-82700632D02*
X213168712Y-82795870D01*
X213168712Y-82795870D02*
X213168712Y-83033965D01*
X213168712Y-83033965D02*
X213216331Y-83129203D01*
X213216331Y-83129203D02*
X213263950Y-83176822D01*
X213263950Y-83176822D02*
X213359188Y-83224441D01*
X213359188Y-83224441D02*
X213549664Y-83224441D01*
X213549664Y-83224441D02*
X213644902Y-83176822D01*
X213644902Y-83176822D02*
X213692521Y-83129203D01*
X213692521Y-83129203D02*
X213740140Y-83033965D01*
D11*
%TO.C,R1*%
X224814862Y-95295575D02*
X225268990Y-95295575D01*
X224814862Y-93825575D02*
X225268990Y-93825575D01*
%TO.C,R3*%
X208431926Y-94805851D02*
X208431926Y-95315299D01*
X209476926Y-94805851D02*
X209476926Y-95315299D01*
%TO.C,R4*%
X205931926Y-91315299D02*
X205931926Y-90805851D01*
X206976926Y-91315299D02*
X206976926Y-90805851D01*
%TO.C,U1*%
X213829426Y-96135575D02*
X211879426Y-96135575D01*
X213829426Y-96135575D02*
X215779426Y-96135575D01*
X213829426Y-101255575D02*
X211879426Y-101255575D01*
X213829426Y-101255575D02*
X215779426Y-101255575D01*
X211129426Y-96230575D02*
X210889426Y-95900575D01*
X211369426Y-95900575D01*
X211129426Y-96230575D01*
G36*
X211129426Y-96230575D02*
G01*
X210889426Y-95900575D01*
X211369426Y-95900575D01*
X211129426Y-96230575D01*
G37*
%TO.C,C1*%
X224268174Y-87150575D02*
X225690678Y-87150575D01*
X224268174Y-88970575D02*
X225690678Y-88970575D01*
%TO.C,R6*%
X207199702Y-83038075D02*
X207709150Y-83038075D01*
X207199702Y-84083075D02*
X207709150Y-84083075D01*
%TO.C,R2*%
X224814862Y-83325575D02*
X225268990Y-83325575D01*
X224814862Y-84795575D02*
X225268990Y-84795575D01*
%TO.C,R8*%
X205287202Y-94038075D02*
X205796650Y-94038075D01*
X205287202Y-95083075D02*
X205796650Y-95083075D01*
%TO.C,C2*%
X225690678Y-91970575D02*
X224268174Y-91970575D01*
X225690678Y-90150575D02*
X224268174Y-90150575D01*
%TO.C,R5*%
X237287202Y-83538075D02*
X237796650Y-83538075D01*
X237287202Y-84583075D02*
X237796650Y-84583075D01*
%TO.C,J1*%
X218604426Y-96310575D02*
X218604426Y-97560575D01*
X218894426Y-96600575D02*
X218894426Y-102570575D01*
X218894426Y-102570575D02*
X231514426Y-102570575D01*
X218904426Y-96610575D02*
X218904426Y-97360575D01*
X218904426Y-97360575D02*
X220704426Y-97360575D01*
X218904426Y-98860575D02*
X219654426Y-98860575D01*
X219654426Y-98860575D02*
X219654426Y-101810575D01*
X219654426Y-101810575D02*
X225204426Y-101810575D01*
X219854426Y-96310575D02*
X218604426Y-96310575D01*
X220704426Y-96610575D02*
X218904426Y-96610575D01*
X220704426Y-97360575D02*
X220704426Y-96610575D01*
X222204426Y-96610575D02*
X222204426Y-97360575D01*
X222204426Y-97360575D02*
X228204426Y-97360575D01*
X228204426Y-96610575D02*
X222204426Y-96610575D01*
X228204426Y-97360575D02*
X228204426Y-96610575D01*
X229704426Y-96610575D02*
X229704426Y-97360575D01*
X229704426Y-97360575D02*
X231504426Y-97360575D01*
X230754426Y-98860575D02*
X230754426Y-101810575D01*
X230754426Y-101810575D02*
X225204426Y-101810575D01*
X231504426Y-96610575D02*
X229704426Y-96610575D01*
X231504426Y-97360575D02*
X231504426Y-96610575D01*
X231504426Y-98860575D02*
X230754426Y-98860575D01*
X231514426Y-96600575D02*
X218894426Y-96600575D01*
X231514426Y-102570575D02*
X231514426Y-96600575D01*
%TO.C,R9*%
X215424426Y-82020575D02*
X215424426Y-75180575D01*
X215424426Y-82020575D02*
X213604426Y-82020575D01*
X215424426Y-75180575D02*
X213604426Y-75180575D01*
X212304426Y-82020575D02*
X210484426Y-82020575D01*
X212304426Y-75180575D02*
X210484426Y-75180575D01*
X210484426Y-82020575D02*
X210484426Y-75180575D01*
D12*
%TO.C,U2*%
X229264227Y-90890575D02*
G75*
G02*
X228502227Y-90890575I-381000J0D01*
G01*
X228502227Y-90890575D02*
G75*
G02*
X229264227Y-90890575I381000J0D01*
G01*
%TO.C,U3*%
X220636627Y-88345776D02*
G75*
G02*
X219874627Y-88345776I-381000J0D01*
G01*
X219874627Y-88345776D02*
G75*
G02*
X220636627Y-88345776I381000J0D01*
G01*
%TD*%
M02*
