%TF.GenerationSoftware,KiCad,Pcbnew,9.0.0*%
%TF.CreationDate,2025-04-22T12:40:58+02:00*%
%TF.ProjectId,carte-capteur-ir,63617274-652d-4636-9170-746575722d69,rev?*%
%TF.SameCoordinates,Original*%
%TF.FileFunction,Legend,Bot*%
%TF.FilePolarity,Positive*%
%FSLAX46Y46*%
G04 Gerber Fmt 4.6, Leading zero omitted, Abs format (unit mm)*
G04 Created by KiCad (PCBNEW 9.0.0) date 2025-04-22 12:40:58*
%MOMM*%
%LPD*%
G01*
G04 APERTURE LIST*
%ADD10C,0.100000*%
%ADD11C,0.150000*%
%ADD12C,0.152400*%
%ADD13C,0.508000*%
G04 APERTURE END LIST*
D10*
X244579113Y-81007923D02*
X244626732Y-81055543D01*
X244626732Y-81055543D02*
X244769589Y-81103162D01*
X244769589Y-81103162D02*
X244864827Y-81103162D01*
X244864827Y-81103162D02*
X245007684Y-81055543D01*
X245007684Y-81055543D02*
X245102922Y-80960304D01*
X245102922Y-80960304D02*
X245150541Y-80865066D01*
X245150541Y-80865066D02*
X245198160Y-80674590D01*
X245198160Y-80674590D02*
X245198160Y-80531733D01*
X245198160Y-80531733D02*
X245150541Y-80341257D01*
X245150541Y-80341257D02*
X245102922Y-80246019D01*
X245102922Y-80246019D02*
X245007684Y-80150781D01*
X245007684Y-80150781D02*
X244864827Y-80103162D01*
X244864827Y-80103162D02*
X244769589Y-80103162D01*
X244769589Y-80103162D02*
X244626732Y-80150781D01*
X244626732Y-80150781D02*
X244579113Y-80198400D01*
X243721970Y-81103162D02*
X243721970Y-80579352D01*
X243721970Y-80579352D02*
X243769589Y-80484114D01*
X243769589Y-80484114D02*
X243864827Y-80436495D01*
X243864827Y-80436495D02*
X244055303Y-80436495D01*
X244055303Y-80436495D02*
X244150541Y-80484114D01*
X243721970Y-81055543D02*
X243817208Y-81103162D01*
X243817208Y-81103162D02*
X244055303Y-81103162D01*
X244055303Y-81103162D02*
X244150541Y-81055543D01*
X244150541Y-81055543D02*
X244198160Y-80960304D01*
X244198160Y-80960304D02*
X244198160Y-80865066D01*
X244198160Y-80865066D02*
X244150541Y-80769828D01*
X244150541Y-80769828D02*
X244055303Y-80722209D01*
X244055303Y-80722209D02*
X243817208Y-80722209D01*
X243817208Y-80722209D02*
X243721970Y-80674590D01*
X243245779Y-80436495D02*
X243245779Y-81436495D01*
X243245779Y-80484114D02*
X243150541Y-80436495D01*
X243150541Y-80436495D02*
X242960065Y-80436495D01*
X242960065Y-80436495D02*
X242864827Y-80484114D01*
X242864827Y-80484114D02*
X242817208Y-80531733D01*
X242817208Y-80531733D02*
X242769589Y-80626971D01*
X242769589Y-80626971D02*
X242769589Y-80912685D01*
X242769589Y-80912685D02*
X242817208Y-81007923D01*
X242817208Y-81007923D02*
X242864827Y-81055543D01*
X242864827Y-81055543D02*
X242960065Y-81103162D01*
X242960065Y-81103162D02*
X243150541Y-81103162D01*
X243150541Y-81103162D02*
X243245779Y-81055543D01*
X242483874Y-80436495D02*
X242102922Y-80436495D01*
X242341017Y-80103162D02*
X242341017Y-80960304D01*
X242341017Y-80960304D02*
X242293398Y-81055543D01*
X242293398Y-81055543D02*
X242198160Y-81103162D01*
X242198160Y-81103162D02*
X242102922Y-81103162D01*
X241388636Y-81055543D02*
X241483874Y-81103162D01*
X241483874Y-81103162D02*
X241674350Y-81103162D01*
X241674350Y-81103162D02*
X241769588Y-81055543D01*
X241769588Y-81055543D02*
X241817207Y-80960304D01*
X241817207Y-80960304D02*
X241817207Y-80579352D01*
X241817207Y-80579352D02*
X241769588Y-80484114D01*
X241769588Y-80484114D02*
X241674350Y-80436495D01*
X241674350Y-80436495D02*
X241483874Y-80436495D01*
X241483874Y-80436495D02*
X241388636Y-80484114D01*
X241388636Y-80484114D02*
X241341017Y-80579352D01*
X241341017Y-80579352D02*
X241341017Y-80674590D01*
X241341017Y-80674590D02*
X241817207Y-80769828D01*
X240483874Y-80436495D02*
X240483874Y-81103162D01*
X240912445Y-80436495D02*
X240912445Y-80960304D01*
X240912445Y-80960304D02*
X240864826Y-81055543D01*
X240864826Y-81055543D02*
X240769588Y-81103162D01*
X240769588Y-81103162D02*
X240626731Y-81103162D01*
X240626731Y-81103162D02*
X240531493Y-81055543D01*
X240531493Y-81055543D02*
X240483874Y-81007923D01*
X240007683Y-81103162D02*
X240007683Y-80436495D01*
X240007683Y-80626971D02*
X239960064Y-80531733D01*
X239960064Y-80531733D02*
X239912445Y-80484114D01*
X239912445Y-80484114D02*
X239817207Y-80436495D01*
X239817207Y-80436495D02*
X239721969Y-80436495D01*
X238626730Y-81103162D02*
X238626730Y-80103162D01*
X237579112Y-81103162D02*
X237912445Y-80626971D01*
X238150540Y-81103162D02*
X238150540Y-80103162D01*
X238150540Y-80103162D02*
X237769588Y-80103162D01*
X237769588Y-80103162D02*
X237674350Y-80150781D01*
X237674350Y-80150781D02*
X237626731Y-80198400D01*
X237626731Y-80198400D02*
X237579112Y-80293638D01*
X237579112Y-80293638D02*
X237579112Y-80436495D01*
X237579112Y-80436495D02*
X237626731Y-80531733D01*
X237626731Y-80531733D02*
X237674350Y-80579352D01*
X237674350Y-80579352D02*
X237769588Y-80626971D01*
X237769588Y-80626971D02*
X238150540Y-80626971D01*
X236531492Y-80103162D02*
X236198159Y-81103162D01*
X236198159Y-81103162D02*
X235864826Y-80103162D01*
X235007683Y-81103162D02*
X235579111Y-81103162D01*
X235293397Y-81103162D02*
X235293397Y-80103162D01*
X235293397Y-80103162D02*
X235388635Y-80246019D01*
X235388635Y-80246019D02*
X235483873Y-80341257D01*
X235483873Y-80341257D02*
X235579111Y-80388876D01*
X234579111Y-81007923D02*
X234531492Y-81055543D01*
X234531492Y-81055543D02*
X234579111Y-81103162D01*
X234579111Y-81103162D02*
X234626730Y-81055543D01*
X234626730Y-81055543D02*
X234579111Y-81007923D01*
X234579111Y-81007923D02*
X234579111Y-81103162D01*
X233912445Y-80103162D02*
X233817207Y-80103162D01*
X233817207Y-80103162D02*
X233721969Y-80150781D01*
X233721969Y-80150781D02*
X233674350Y-80198400D01*
X233674350Y-80198400D02*
X233626731Y-80293638D01*
X233626731Y-80293638D02*
X233579112Y-80484114D01*
X233579112Y-80484114D02*
X233579112Y-80722209D01*
X233579112Y-80722209D02*
X233626731Y-80912685D01*
X233626731Y-80912685D02*
X233674350Y-81007923D01*
X233674350Y-81007923D02*
X233721969Y-81055543D01*
X233721969Y-81055543D02*
X233817207Y-81103162D01*
X233817207Y-81103162D02*
X233912445Y-81103162D01*
X233912445Y-81103162D02*
X234007683Y-81055543D01*
X234007683Y-81055543D02*
X234055302Y-81007923D01*
X234055302Y-81007923D02*
X234102921Y-80912685D01*
X234102921Y-80912685D02*
X234150540Y-80722209D01*
X234150540Y-80722209D02*
X234150540Y-80484114D01*
X234150540Y-80484114D02*
X234102921Y-80293638D01*
X234102921Y-80293638D02*
X234055302Y-80198400D01*
X234055302Y-80198400D02*
X234007683Y-80150781D01*
X234007683Y-80150781D02*
X233912445Y-80103162D01*
X245198160Y-82427391D02*
X244721970Y-82427391D01*
X245293398Y-82713106D02*
X244960065Y-81713106D01*
X244960065Y-81713106D02*
X244626732Y-82713106D01*
X244293398Y-82713106D02*
X244293398Y-82046439D01*
X244293398Y-82236915D02*
X244245779Y-82141677D01*
X244245779Y-82141677D02*
X244198160Y-82094058D01*
X244198160Y-82094058D02*
X244102922Y-82046439D01*
X244102922Y-82046439D02*
X244007684Y-82046439D01*
X243817207Y-82046439D02*
X243436255Y-82046439D01*
X243674350Y-81713106D02*
X243674350Y-82570248D01*
X243674350Y-82570248D02*
X243626731Y-82665487D01*
X243626731Y-82665487D02*
X243531493Y-82713106D01*
X243531493Y-82713106D02*
X243436255Y-82713106D01*
X242674350Y-82046439D02*
X242674350Y-82713106D01*
X243102921Y-82046439D02*
X243102921Y-82570248D01*
X243102921Y-82570248D02*
X243055302Y-82665487D01*
X243055302Y-82665487D02*
X242960064Y-82713106D01*
X242960064Y-82713106D02*
X242817207Y-82713106D01*
X242817207Y-82713106D02*
X242721969Y-82665487D01*
X242721969Y-82665487D02*
X242674350Y-82617867D01*
X242198159Y-82713106D02*
X242198159Y-82046439D01*
X242198159Y-82236915D02*
X242150540Y-82141677D01*
X242150540Y-82141677D02*
X242102921Y-82094058D01*
X242102921Y-82094058D02*
X242007683Y-82046439D01*
X242007683Y-82046439D02*
X241912445Y-82046439D01*
X240817206Y-82713106D02*
X240817206Y-81713106D01*
X240817206Y-81713106D02*
X240245778Y-82713106D01*
X240245778Y-82713106D02*
X240245778Y-81713106D01*
X239388635Y-82665487D02*
X239483873Y-82713106D01*
X239483873Y-82713106D02*
X239674349Y-82713106D01*
X239674349Y-82713106D02*
X239769587Y-82665487D01*
X239769587Y-82665487D02*
X239817206Y-82570248D01*
X239817206Y-82570248D02*
X239817206Y-82189296D01*
X239817206Y-82189296D02*
X239769587Y-82094058D01*
X239769587Y-82094058D02*
X239674349Y-82046439D01*
X239674349Y-82046439D02*
X239483873Y-82046439D01*
X239483873Y-82046439D02*
X239388635Y-82094058D01*
X239388635Y-82094058D02*
X239341016Y-82189296D01*
X239341016Y-82189296D02*
X239341016Y-82284534D01*
X239341016Y-82284534D02*
X239817206Y-82379772D01*
X238912444Y-82713106D02*
X238912444Y-82046439D01*
X238912444Y-82236915D02*
X238864825Y-82141677D01*
X238864825Y-82141677D02*
X238817206Y-82094058D01*
X238817206Y-82094058D02*
X238721968Y-82046439D01*
X238721968Y-82046439D02*
X238626730Y-82046439D01*
X238341015Y-82665487D02*
X238245777Y-82713106D01*
X238245777Y-82713106D02*
X238055301Y-82713106D01*
X238055301Y-82713106D02*
X237960063Y-82665487D01*
X237960063Y-82665487D02*
X237912444Y-82570248D01*
X237912444Y-82570248D02*
X237912444Y-82522629D01*
X237912444Y-82522629D02*
X237960063Y-82427391D01*
X237960063Y-82427391D02*
X238055301Y-82379772D01*
X238055301Y-82379772D02*
X238198158Y-82379772D01*
X238198158Y-82379772D02*
X238293396Y-82332153D01*
X238293396Y-82332153D02*
X238341015Y-82236915D01*
X238341015Y-82236915D02*
X238341015Y-82189296D01*
X238341015Y-82189296D02*
X238293396Y-82094058D01*
X238293396Y-82094058D02*
X238198158Y-82046439D01*
X238198158Y-82046439D02*
X238055301Y-82046439D01*
X238055301Y-82046439D02*
X237960063Y-82094058D01*
X237483872Y-82713106D02*
X237483872Y-82046439D01*
X237483872Y-81713106D02*
X237531491Y-81760725D01*
X237531491Y-81760725D02*
X237483872Y-81808344D01*
X237483872Y-81808344D02*
X237436253Y-81760725D01*
X237436253Y-81760725D02*
X237483872Y-81713106D01*
X237483872Y-81713106D02*
X237483872Y-81808344D01*
X237055301Y-82665487D02*
X236960063Y-82713106D01*
X236960063Y-82713106D02*
X236769587Y-82713106D01*
X236769587Y-82713106D02*
X236674349Y-82665487D01*
X236674349Y-82665487D02*
X236626730Y-82570248D01*
X236626730Y-82570248D02*
X236626730Y-82522629D01*
X236626730Y-82522629D02*
X236674349Y-82427391D01*
X236674349Y-82427391D02*
X236769587Y-82379772D01*
X236769587Y-82379772D02*
X236912444Y-82379772D01*
X236912444Y-82379772D02*
X237007682Y-82332153D01*
X237007682Y-82332153D02*
X237055301Y-82236915D01*
X237055301Y-82236915D02*
X237055301Y-82189296D01*
X237055301Y-82189296D02*
X237007682Y-82094058D01*
X237007682Y-82094058D02*
X236912444Y-82046439D01*
X236912444Y-82046439D02*
X236769587Y-82046439D01*
X236769587Y-82046439D02*
X236674349Y-82094058D01*
X236293396Y-82046439D02*
X236055301Y-82713106D01*
X235817206Y-82046439D02*
X236055301Y-82713106D01*
X236055301Y-82713106D02*
X236150539Y-82951201D01*
X236150539Y-82951201D02*
X236198158Y-82998820D01*
X236198158Y-82998820D02*
X236293396Y-83046439D01*
X235007682Y-82713106D02*
X235007682Y-82189296D01*
X235007682Y-82189296D02*
X235055301Y-82094058D01*
X235055301Y-82094058D02*
X235150539Y-82046439D01*
X235150539Y-82046439D02*
X235341015Y-82046439D01*
X235341015Y-82046439D02*
X235436253Y-82094058D01*
X235007682Y-82665487D02*
X235102920Y-82713106D01*
X235102920Y-82713106D02*
X235341015Y-82713106D01*
X235341015Y-82713106D02*
X235436253Y-82665487D01*
X235436253Y-82665487D02*
X235483872Y-82570248D01*
X235483872Y-82570248D02*
X235483872Y-82475010D01*
X235483872Y-82475010D02*
X235436253Y-82379772D01*
X235436253Y-82379772D02*
X235341015Y-82332153D01*
X235341015Y-82332153D02*
X235102920Y-82332153D01*
X235102920Y-82332153D02*
X235007682Y-82284534D01*
X234531491Y-82046439D02*
X234531491Y-82713106D01*
X234531491Y-82141677D02*
X234483872Y-82094058D01*
X234483872Y-82094058D02*
X234388634Y-82046439D01*
X234388634Y-82046439D02*
X234245777Y-82046439D01*
X234245777Y-82046439D02*
X234150539Y-82094058D01*
X234150539Y-82094058D02*
X234102920Y-82189296D01*
X234102920Y-82189296D02*
X234102920Y-82713106D01*
X244579113Y-84227811D02*
X244626732Y-84275431D01*
X244626732Y-84275431D02*
X244769589Y-84323050D01*
X244769589Y-84323050D02*
X244864827Y-84323050D01*
X244864827Y-84323050D02*
X245007684Y-84275431D01*
X245007684Y-84275431D02*
X245102922Y-84180192D01*
X245102922Y-84180192D02*
X245150541Y-84084954D01*
X245150541Y-84084954D02*
X245198160Y-83894478D01*
X245198160Y-83894478D02*
X245198160Y-83751621D01*
X245198160Y-83751621D02*
X245150541Y-83561145D01*
X245150541Y-83561145D02*
X245102922Y-83465907D01*
X245102922Y-83465907D02*
X245007684Y-83370669D01*
X245007684Y-83370669D02*
X244864827Y-83323050D01*
X244864827Y-83323050D02*
X244769589Y-83323050D01*
X244769589Y-83323050D02*
X244626732Y-83370669D01*
X244626732Y-83370669D02*
X244579113Y-83418288D01*
X244007684Y-84323050D02*
X244102922Y-84275431D01*
X244102922Y-84275431D02*
X244150541Y-84180192D01*
X244150541Y-84180192D02*
X244150541Y-83323050D01*
X243198160Y-83656383D02*
X243198160Y-84323050D01*
X243626731Y-83656383D02*
X243626731Y-84180192D01*
X243626731Y-84180192D02*
X243579112Y-84275431D01*
X243579112Y-84275431D02*
X243483874Y-84323050D01*
X243483874Y-84323050D02*
X243341017Y-84323050D01*
X243341017Y-84323050D02*
X243245779Y-84275431D01*
X243245779Y-84275431D02*
X243198160Y-84227811D01*
X242721969Y-84323050D02*
X242721969Y-83323050D01*
X242721969Y-83704002D02*
X242626731Y-83656383D01*
X242626731Y-83656383D02*
X242436255Y-83656383D01*
X242436255Y-83656383D02*
X242341017Y-83704002D01*
X242341017Y-83704002D02*
X242293398Y-83751621D01*
X242293398Y-83751621D02*
X242245779Y-83846859D01*
X242245779Y-83846859D02*
X242245779Y-84132573D01*
X242245779Y-84132573D02*
X242293398Y-84227811D01*
X242293398Y-84227811D02*
X242341017Y-84275431D01*
X242341017Y-84275431D02*
X242436255Y-84323050D01*
X242436255Y-84323050D02*
X242626731Y-84323050D01*
X242626731Y-84323050D02*
X242721969Y-84275431D01*
X240483874Y-84323050D02*
X240817207Y-83846859D01*
X241055302Y-84323050D02*
X241055302Y-83323050D01*
X241055302Y-83323050D02*
X240674350Y-83323050D01*
X240674350Y-83323050D02*
X240579112Y-83370669D01*
X240579112Y-83370669D02*
X240531493Y-83418288D01*
X240531493Y-83418288D02*
X240483874Y-83513526D01*
X240483874Y-83513526D02*
X240483874Y-83656383D01*
X240483874Y-83656383D02*
X240531493Y-83751621D01*
X240531493Y-83751621D02*
X240579112Y-83799240D01*
X240579112Y-83799240D02*
X240674350Y-83846859D01*
X240674350Y-83846859D02*
X241055302Y-83846859D01*
X239912445Y-84323050D02*
X240007683Y-84275431D01*
X240007683Y-84275431D02*
X240055302Y-84227811D01*
X240055302Y-84227811D02*
X240102921Y-84132573D01*
X240102921Y-84132573D02*
X240102921Y-83846859D01*
X240102921Y-83846859D02*
X240055302Y-83751621D01*
X240055302Y-83751621D02*
X240007683Y-83704002D01*
X240007683Y-83704002D02*
X239912445Y-83656383D01*
X239912445Y-83656383D02*
X239769588Y-83656383D01*
X239769588Y-83656383D02*
X239674350Y-83704002D01*
X239674350Y-83704002D02*
X239626731Y-83751621D01*
X239626731Y-83751621D02*
X239579112Y-83846859D01*
X239579112Y-83846859D02*
X239579112Y-84132573D01*
X239579112Y-84132573D02*
X239626731Y-84227811D01*
X239626731Y-84227811D02*
X239674350Y-84275431D01*
X239674350Y-84275431D02*
X239769588Y-84323050D01*
X239769588Y-84323050D02*
X239912445Y-84323050D01*
X239150540Y-84323050D02*
X239150540Y-83323050D01*
X239150540Y-83704002D02*
X239055302Y-83656383D01*
X239055302Y-83656383D02*
X238864826Y-83656383D01*
X238864826Y-83656383D02*
X238769588Y-83704002D01*
X238769588Y-83704002D02*
X238721969Y-83751621D01*
X238721969Y-83751621D02*
X238674350Y-83846859D01*
X238674350Y-83846859D02*
X238674350Y-84132573D01*
X238674350Y-84132573D02*
X238721969Y-84227811D01*
X238721969Y-84227811D02*
X238769588Y-84275431D01*
X238769588Y-84275431D02*
X238864826Y-84323050D01*
X238864826Y-84323050D02*
X239055302Y-84323050D01*
X239055302Y-84323050D02*
X239150540Y-84275431D01*
X238102921Y-84323050D02*
X238198159Y-84275431D01*
X238198159Y-84275431D02*
X238245778Y-84227811D01*
X238245778Y-84227811D02*
X238293397Y-84132573D01*
X238293397Y-84132573D02*
X238293397Y-83846859D01*
X238293397Y-83846859D02*
X238245778Y-83751621D01*
X238245778Y-83751621D02*
X238198159Y-83704002D01*
X238198159Y-83704002D02*
X238102921Y-83656383D01*
X238102921Y-83656383D02*
X237960064Y-83656383D01*
X237960064Y-83656383D02*
X237864826Y-83704002D01*
X237864826Y-83704002D02*
X237817207Y-83751621D01*
X237817207Y-83751621D02*
X237769588Y-83846859D01*
X237769588Y-83846859D02*
X237769588Y-84132573D01*
X237769588Y-84132573D02*
X237817207Y-84227811D01*
X237817207Y-84227811D02*
X237864826Y-84275431D01*
X237864826Y-84275431D02*
X237960064Y-84323050D01*
X237960064Y-84323050D02*
X238102921Y-84323050D01*
X237483873Y-83656383D02*
X237102921Y-83656383D01*
X237341016Y-83323050D02*
X237341016Y-84180192D01*
X237341016Y-84180192D02*
X237293397Y-84275431D01*
X237293397Y-84275431D02*
X237198159Y-84323050D01*
X237198159Y-84323050D02*
X237102921Y-84323050D01*
X236007682Y-84323050D02*
X236007682Y-83323050D01*
X235531492Y-84323050D02*
X235531492Y-83323050D01*
X235531492Y-83323050D02*
X234960064Y-84323050D01*
X234960064Y-84323050D02*
X234960064Y-83323050D01*
X234531492Y-84275431D02*
X234388635Y-84323050D01*
X234388635Y-84323050D02*
X234150540Y-84323050D01*
X234150540Y-84323050D02*
X234055302Y-84275431D01*
X234055302Y-84275431D02*
X234007683Y-84227811D01*
X234007683Y-84227811D02*
X233960064Y-84132573D01*
X233960064Y-84132573D02*
X233960064Y-84037335D01*
X233960064Y-84037335D02*
X234007683Y-83942097D01*
X234007683Y-83942097D02*
X234055302Y-83894478D01*
X234055302Y-83894478D02*
X234150540Y-83846859D01*
X234150540Y-83846859D02*
X234341016Y-83799240D01*
X234341016Y-83799240D02*
X234436254Y-83751621D01*
X234436254Y-83751621D02*
X234483873Y-83704002D01*
X234483873Y-83704002D02*
X234531492Y-83608764D01*
X234531492Y-83608764D02*
X234531492Y-83513526D01*
X234531492Y-83513526D02*
X234483873Y-83418288D01*
X234483873Y-83418288D02*
X234436254Y-83370669D01*
X234436254Y-83370669D02*
X234341016Y-83323050D01*
X234341016Y-83323050D02*
X234102921Y-83323050D01*
X234102921Y-83323050D02*
X233960064Y-83370669D01*
X233579111Y-84037335D02*
X233102921Y-84037335D01*
X233674349Y-84323050D02*
X233341016Y-83323050D01*
X233341016Y-83323050D02*
X233007683Y-84323050D01*
X232055301Y-83323050D02*
X231483873Y-83323050D01*
X231769587Y-84323050D02*
X231769587Y-83323050D01*
X231007682Y-84323050D02*
X231102920Y-84275431D01*
X231102920Y-84275431D02*
X231150539Y-84227811D01*
X231150539Y-84227811D02*
X231198158Y-84132573D01*
X231198158Y-84132573D02*
X231198158Y-83846859D01*
X231198158Y-83846859D02*
X231150539Y-83751621D01*
X231150539Y-83751621D02*
X231102920Y-83704002D01*
X231102920Y-83704002D02*
X231007682Y-83656383D01*
X231007682Y-83656383D02*
X230864825Y-83656383D01*
X230864825Y-83656383D02*
X230769587Y-83704002D01*
X230769587Y-83704002D02*
X230721968Y-83751621D01*
X230721968Y-83751621D02*
X230674349Y-83846859D01*
X230674349Y-83846859D02*
X230674349Y-84132573D01*
X230674349Y-84132573D02*
X230721968Y-84227811D01*
X230721968Y-84227811D02*
X230769587Y-84275431D01*
X230769587Y-84275431D02*
X230864825Y-84323050D01*
X230864825Y-84323050D02*
X231007682Y-84323050D01*
X229817206Y-83656383D02*
X229817206Y-84323050D01*
X230245777Y-83656383D02*
X230245777Y-84180192D01*
X230245777Y-84180192D02*
X230198158Y-84275431D01*
X230198158Y-84275431D02*
X230102920Y-84323050D01*
X230102920Y-84323050D02*
X229960063Y-84323050D01*
X229960063Y-84323050D02*
X229864825Y-84275431D01*
X229864825Y-84275431D02*
X229817206Y-84227811D01*
X229198158Y-84323050D02*
X229293396Y-84275431D01*
X229293396Y-84275431D02*
X229341015Y-84180192D01*
X229341015Y-84180192D02*
X229341015Y-83323050D01*
X228674348Y-84323050D02*
X228769586Y-84275431D01*
X228769586Y-84275431D02*
X228817205Y-84227811D01*
X228817205Y-84227811D02*
X228864824Y-84132573D01*
X228864824Y-84132573D02*
X228864824Y-83846859D01*
X228864824Y-83846859D02*
X228817205Y-83751621D01*
X228817205Y-83751621D02*
X228769586Y-83704002D01*
X228769586Y-83704002D02*
X228674348Y-83656383D01*
X228674348Y-83656383D02*
X228531491Y-83656383D01*
X228531491Y-83656383D02*
X228436253Y-83704002D01*
X228436253Y-83704002D02*
X228388634Y-83751621D01*
X228388634Y-83751621D02*
X228341015Y-83846859D01*
X228341015Y-83846859D02*
X228341015Y-84132573D01*
X228341015Y-84132573D02*
X228388634Y-84227811D01*
X228388634Y-84227811D02*
X228436253Y-84275431D01*
X228436253Y-84275431D02*
X228531491Y-84323050D01*
X228531491Y-84323050D02*
X228674348Y-84323050D01*
X227483872Y-83656383D02*
X227483872Y-84323050D01*
X227912443Y-83656383D02*
X227912443Y-84180192D01*
X227912443Y-84180192D02*
X227864824Y-84275431D01*
X227864824Y-84275431D02*
X227769586Y-84323050D01*
X227769586Y-84323050D02*
X227626729Y-84323050D01*
X227626729Y-84323050D02*
X227531491Y-84275431D01*
X227531491Y-84275431D02*
X227483872Y-84227811D01*
X227055300Y-84275431D02*
X226960062Y-84323050D01*
X226960062Y-84323050D02*
X226769586Y-84323050D01*
X226769586Y-84323050D02*
X226674348Y-84275431D01*
X226674348Y-84275431D02*
X226626729Y-84180192D01*
X226626729Y-84180192D02*
X226626729Y-84132573D01*
X226626729Y-84132573D02*
X226674348Y-84037335D01*
X226674348Y-84037335D02*
X226769586Y-83989716D01*
X226769586Y-83989716D02*
X226912443Y-83989716D01*
X226912443Y-83989716D02*
X227007681Y-83942097D01*
X227007681Y-83942097D02*
X227055300Y-83846859D01*
X227055300Y-83846859D02*
X227055300Y-83799240D01*
X227055300Y-83799240D02*
X227007681Y-83704002D01*
X227007681Y-83704002D02*
X226912443Y-83656383D01*
X226912443Y-83656383D02*
X226769586Y-83656383D01*
X226769586Y-83656383D02*
X226674348Y-83704002D01*
X225817205Y-84275431D02*
X225912443Y-84323050D01*
X225912443Y-84323050D02*
X226102919Y-84323050D01*
X226102919Y-84323050D02*
X226198157Y-84275431D01*
X226198157Y-84275431D02*
X226245776Y-84180192D01*
X226245776Y-84180192D02*
X226245776Y-83799240D01*
X226245776Y-83799240D02*
X226198157Y-83704002D01*
X226198157Y-83704002D02*
X226102919Y-83656383D01*
X226102919Y-83656383D02*
X225912443Y-83656383D01*
X225912443Y-83656383D02*
X225817205Y-83704002D01*
X225817205Y-83704002D02*
X225769586Y-83799240D01*
X225769586Y-83799240D02*
X225769586Y-83894478D01*
X225769586Y-83894478D02*
X226245776Y-83989716D01*
D11*
X235182522Y-90165755D02*
X235182522Y-89356232D01*
X235182522Y-89356232D02*
X235230141Y-89260994D01*
X235230141Y-89260994D02*
X235277760Y-89213375D01*
X235277760Y-89213375D02*
X235372998Y-89165755D01*
X235372998Y-89165755D02*
X235563474Y-89165755D01*
X235563474Y-89165755D02*
X235658712Y-89213375D01*
X235658712Y-89213375D02*
X235706331Y-89260994D01*
X235706331Y-89260994D02*
X235753950Y-89356232D01*
X235753950Y-89356232D02*
X235753950Y-90165755D01*
X236182522Y-90070517D02*
X236230141Y-90118136D01*
X236230141Y-90118136D02*
X236325379Y-90165755D01*
X236325379Y-90165755D02*
X236563474Y-90165755D01*
X236563474Y-90165755D02*
X236658712Y-90118136D01*
X236658712Y-90118136D02*
X236706331Y-90070517D01*
X236706331Y-90070517D02*
X236753950Y-89975279D01*
X236753950Y-89975279D02*
X236753950Y-89880041D01*
X236753950Y-89880041D02*
X236706331Y-89737184D01*
X236706331Y-89737184D02*
X236134903Y-89165755D01*
X236134903Y-89165755D02*
X236753950Y-89165755D01*
X213956331Y-89070595D02*
X213956331Y-89880118D01*
X213956331Y-89880118D02*
X213908712Y-89975356D01*
X213908712Y-89975356D02*
X213861093Y-90022976D01*
X213861093Y-90022976D02*
X213765855Y-90070595D01*
X213765855Y-90070595D02*
X213575379Y-90070595D01*
X213575379Y-90070595D02*
X213480141Y-90022976D01*
X213480141Y-90022976D02*
X213432522Y-89975356D01*
X213432522Y-89975356D02*
X213384903Y-89880118D01*
X213384903Y-89880118D02*
X213384903Y-89070595D01*
X213003950Y-89070595D02*
X212384903Y-89070595D01*
X212384903Y-89070595D02*
X212718236Y-89451547D01*
X212718236Y-89451547D02*
X212575379Y-89451547D01*
X212575379Y-89451547D02*
X212480141Y-89499166D01*
X212480141Y-89499166D02*
X212432522Y-89546785D01*
X212432522Y-89546785D02*
X212384903Y-89642023D01*
X212384903Y-89642023D02*
X212384903Y-89880118D01*
X212384903Y-89880118D02*
X212432522Y-89975356D01*
X212432522Y-89975356D02*
X212480141Y-90022976D01*
X212480141Y-90022976D02*
X212575379Y-90070595D01*
X212575379Y-90070595D02*
X212861093Y-90070595D01*
X212861093Y-90070595D02*
X212956331Y-90022976D01*
X212956331Y-90022976D02*
X213003950Y-89975356D01*
D12*
%TO.C,U2*%
X230661227Y-92744775D02*
X230661227Y-87704156D01*
X231775159Y-86496375D02*
X234949774Y-86496375D01*
X234949774Y-92744775D02*
X230661227Y-92744775D01*
X236939079Y-86496375D02*
X241227627Y-86496375D01*
X241227627Y-86496375D02*
X241227627Y-92744775D01*
X241227627Y-92744775D02*
X236939079Y-92744775D01*
D13*
X229264227Y-90890575D02*
G75*
G02*
X228502227Y-90890575I-381000J0D01*
G01*
X228502227Y-90890575D02*
G75*
G02*
X229264227Y-90890575I381000J0D01*
G01*
D12*
%TO.C,U3*%
X207911227Y-86491576D02*
X212199775Y-86491576D01*
X207911227Y-92739976D02*
X207911227Y-86491576D01*
X212199775Y-92739976D02*
X207911227Y-92739976D01*
X214189080Y-86491576D02*
X218477627Y-86491576D01*
X217363695Y-92739976D02*
X214189080Y-92739976D01*
X218477627Y-86491576D02*
X218477627Y-91532195D01*
D13*
X220636627Y-88345776D02*
G75*
G02*
X219874627Y-88345776I-381000J0D01*
G01*
X219874627Y-88345776D02*
G75*
G02*
X220636627Y-88345776I381000J0D01*
G01*
%TD*%
M02*
