%TF.GenerationSoftware,KiCad,Pcbnew,9.0.0*%
%TF.CreationDate,2025-04-22T12:40:58+02:00*%
%TF.ProjectId,carte-capteur-ir,63617274-652d-4636-9170-746575722d69,rev?*%
%TF.SameCoordinates,Original*%
%TF.FileFunction,Soldermask,Top*%
%TF.FilePolarity,Negative*%
%FSLAX46Y46*%
G04 Gerber Fmt 4.6, Leading zero omitted, Abs format (unit mm)*
G04 Created by KiCad (PCBNEW 9.0.0) date 2025-04-22 12:40:58*
%MOMM*%
%LPD*%
G01*
G04 APERTURE LIST*
G04 Aperture macros list*
%AMRoundRect*
0 Rectangle with rounded corners*
0 $1 Rounding radius*
0 $2 $3 $4 $5 $6 $7 $8 $9 X,Y pos of 4 corners*
0 Add a 4 corners polygon primitive as box body*
4,1,4,$2,$3,$4,$5,$6,$7,$8,$9,$2,$3,0*
0 Add four circle primitives for the rounded corners*
1,1,$1+$1,$2,$3*
1,1,$1+$1,$4,$5*
1,1,$1+$1,$6,$7*
1,1,$1+$1,$8,$9*
0 Add four rect primitives between the rounded corners*
20,1,$1+$1,$2,$3,$4,$5,0*
20,1,$1+$1,$4,$5,$6,$7,0*
20,1,$1+$1,$6,$7,$8,$9,0*
20,1,$1+$1,$8,$9,$2,$3,0*%
G04 Aperture macros list end*
%ADD10RoundRect,0.250000X-0.262500X-0.450000X0.262500X-0.450000X0.262500X0.450000X-0.262500X0.450000X0*%
%ADD11RoundRect,0.237500X-0.237500X0.250000X-0.237500X-0.250000X0.237500X-0.250000X0.237500X0.250000X0*%
%ADD12C,3.200000*%
%ADD13RoundRect,0.237500X0.237500X-0.250000X0.237500X0.250000X-0.237500X0.250000X-0.237500X-0.250000X0*%
%ADD14RoundRect,0.150000X-0.675000X-0.150000X0.675000X-0.150000X0.675000X0.150000X-0.675000X0.150000X0*%
%ADD15RoundRect,0.250000X-0.325000X-0.650000X0.325000X-0.650000X0.325000X0.650000X-0.325000X0.650000X0*%
%ADD16RoundRect,0.237500X-0.250000X-0.237500X0.250000X-0.237500X0.250000X0.237500X-0.250000X0.237500X0*%
%ADD17RoundRect,0.250000X0.325000X0.650000X-0.325000X0.650000X-0.325000X-0.650000X0.325000X-0.650000X0*%
%ADD18RoundRect,0.250000X-0.600000X-0.725000X0.600000X-0.725000X0.600000X0.725000X-0.600000X0.725000X0*%
%ADD19O,1.700000X1.950000*%
%ADD20C,2.000000*%
%ADD21C,0.990600*%
G04 APERTURE END LIST*
D10*
%TO.C,R1*%
X225954426Y-94560575D03*
X224129426Y-94560575D03*
%TD*%
D11*
%TO.C,R3*%
X208954426Y-95973075D03*
X208954426Y-94148075D03*
%TD*%
D12*
%TO.C,REF\u002A\u002A*%
X243500000Y-100000000D03*
%TD*%
D13*
%TO.C,R4*%
X206454426Y-91973075D03*
X206454426Y-90148075D03*
%TD*%
D14*
%TO.C,U1*%
X211204426Y-100600575D03*
X211204426Y-96790575D03*
X211204426Y-98060575D03*
X211204426Y-99330575D03*
X216454426Y-100600575D03*
X216454426Y-99330575D03*
X216454426Y-98060575D03*
X216454426Y-96790575D03*
%TD*%
D12*
%TO.C,REF\u002A\u002A*%
X205500000Y-76000000D03*
%TD*%
D15*
%TO.C,C1*%
X223504426Y-88060575D03*
X226454426Y-88060575D03*
%TD*%
D12*
%TO.C,REF\u002A\u002A*%
X243500000Y-76000000D03*
%TD*%
D16*
%TO.C,R6*%
X206541926Y-83560575D03*
X208366926Y-83560575D03*
%TD*%
D10*
%TO.C,R2*%
X224129426Y-84060575D03*
X225954426Y-84060575D03*
%TD*%
D16*
%TO.C,R8*%
X204629426Y-94560575D03*
X206454426Y-94560575D03*
%TD*%
D17*
%TO.C,C2*%
X226454426Y-91060575D03*
X223504426Y-91060575D03*
%TD*%
D16*
%TO.C,R5*%
X236629426Y-84060575D03*
X238454426Y-84060575D03*
%TD*%
D12*
%TO.C,REF\u002A\u002A*%
X205500000Y-100000000D03*
%TD*%
D18*
%TO.C,J1*%
X221454426Y-99060575D03*
D19*
X226454426Y-99060575D03*
X223954426Y-99060575D03*
X228954426Y-99060575D03*
%TD*%
D20*
%TO.C,R9*%
X212954426Y-81140575D03*
X212954426Y-78600575D03*
X212954426Y-76060575D03*
%TD*%
%TO.C,U2*%
X233194427Y-88350575D03*
X238694426Y-88350575D03*
D21*
X231294426Y-87170575D03*
D20*
X233194427Y-90890575D03*
X238694426Y-90890575D03*
X235944427Y-91520574D03*
X235944427Y-87720576D03*
%TD*%
%TO.C,U3*%
X215944427Y-90885776D03*
X210444428Y-90885776D03*
D21*
X217844428Y-92065776D03*
D20*
X215944427Y-88345776D03*
X210444428Y-88345776D03*
X213194427Y-87715777D03*
X213194427Y-91515775D03*
%TD*%
M02*
